<svg width="147" height="197" viewBox="0 0 147 197" fill="none" xmlns="http://www.w3.org/2000/svg">
<path d="M54.0536 16.5788C51.159 15.7468 49.0497 14.7272 47.7254 13.5202C46.4129 12.3015 45.7567 10.8015 45.7567 9.0202C45.7567 7.00458 46.5594 5.34052 48.1649 4.02802C49.7821 2.7038 51.8797 2.04169 54.4579 2.04169C56.2157 2.04169 57.7801 2.38153 59.1512 3.06122C60.534 3.74091 61.6004 4.67841 62.3504 5.87372C63.1122 7.06903 63.493 8.37567 63.493 9.79364H60.1004C60.1004 8.24677 59.6083 7.03387 58.6239 6.15497C57.6395 5.26434 56.2508 4.81903 54.4579 4.81903C52.7938 4.81903 51.493 5.18817 50.5555 5.92645C49.6297 6.65302 49.1669 7.66669 49.1669 8.96747C49.1669 10.0104 49.6063 10.8952 50.4852 11.6218C51.3758 12.3366 52.8817 12.9929 55.0028 13.5905C57.1356 14.1882 58.7997 14.8503 59.995 15.5768C61.202 16.2917 62.0926 17.1296 62.6669 18.0905C63.2528 19.0515 63.5458 20.1823 63.5458 21.4831C63.5458 23.5573 62.7372 25.2214 61.12 26.4753C59.5028 27.7175 57.3407 28.3386 54.6337 28.3386C52.8758 28.3386 51.2352 28.0046 49.7118 27.3366C48.1883 26.6569 47.0106 25.7311 46.1786 24.5593C45.3583 23.3874 44.9481 22.0573 44.9481 20.569H48.3407C48.3407 22.1159 48.909 23.3405 50.0458 24.2429C51.1942 25.1335 52.7235 25.5788 54.6337 25.5788C56.4149 25.5788 57.7801 25.2155 58.7294 24.489C59.6786 23.7624 60.1532 22.7722 60.1532 21.5182C60.1532 20.2643 59.7137 19.2975 58.8348 18.6179C57.9559 17.9265 56.3622 17.2468 54.0536 16.5788ZM70.6297 11.2702C72.0712 9.50067 73.9462 8.61591 76.2547 8.61591C80.2743 8.61591 82.3016 10.8835 82.3368 15.4186V27.987H79.0848V15.4011C79.0731 14.03 78.7567 13.0163 78.1356 12.36C77.5262 11.7038 76.5712 11.3757 75.2704 11.3757C74.2157 11.3757 73.2899 11.6569 72.493 12.2194C71.6962 12.7819 71.0751 13.5202 70.6297 14.4343V27.987H67.3778V0.987H70.6297V11.2702ZM95.0985 28.3386C92.5204 28.3386 90.4227 27.4948 88.8055 25.8073C87.1883 24.1081 86.3797 21.8405 86.3797 19.0046V18.4069C86.3797 16.5202 86.7372 14.8386 87.452 13.362C88.1786 11.8737 89.1864 10.7136 90.4754 9.88153C91.7762 9.03778 93.1825 8.61591 94.6942 8.61591C97.1669 8.61591 99.0887 9.43036 100.46 11.0593C101.831 12.6882 102.516 15.0202 102.516 18.0554V19.4089H89.6317C89.6786 21.2839 90.2235 22.8015 91.2665 23.9616C92.3212 25.11 93.6571 25.6843 95.2743 25.6843C96.4227 25.6843 97.3954 25.4499 98.1922 24.9811C98.9891 24.5124 99.6864 23.8913 100.284 23.1179L102.27 24.6647C100.677 27.114 98.286 28.3386 95.0985 28.3386ZM94.6942 11.2878C93.3817 11.2878 92.2801 11.7682 91.3895 12.7292C90.4989 13.6784 89.9481 15.0143 89.7372 16.737H99.2645V16.4909C99.1708 14.8386 98.7254 13.5612 97.9286 12.6589C97.1317 11.7448 96.0536 11.2878 94.6942 11.2878ZM15.786 67.6843C16.9462 67.6843 17.9598 67.3327 18.827 66.6296C19.6942 65.9265 20.1747 65.0475 20.2684 63.9929H23.3446C23.286 65.0827 22.911 66.1198 22.2196 67.1042C21.5282 68.0886 20.6024 68.8737 19.4422 69.4597C18.2938 70.0456 17.0751 70.3386 15.786 70.3386C13.1962 70.3386 11.1337 69.4772 9.5985 67.7546C8.07506 66.0202 7.31334 63.653 7.31334 60.653V60.1081C7.31334 58.2565 7.65318 56.61 8.33287 55.1686C9.01256 53.7272 9.98521 52.6081 11.2508 51.8112C12.5282 51.0143 14.034 50.6159 15.7684 50.6159C17.9012 50.6159 19.6708 51.2546 21.077 52.5319C22.495 53.8093 23.2508 55.4675 23.3446 57.5065H20.2684C20.1747 56.2761 19.7059 55.2682 18.8622 54.4831C18.0301 53.6862 16.9989 53.2878 15.7684 53.2878C14.1161 53.2878 12.8329 53.8854 11.9188 55.0807C11.0165 56.2643 10.5653 57.9811 10.5653 60.2311V60.8464C10.5653 63.0378 11.0165 64.7253 11.9188 65.9089C12.8212 67.0925 14.1102 67.6843 15.786 67.6843ZM30.2528 53.2702C31.6942 51.5007 33.5692 50.6159 35.8778 50.6159C39.8973 50.6159 41.9247 52.8835 41.9598 57.4186V69.987H38.7079V57.4011C38.6962 56.03 38.3797 55.0163 37.7587 54.36C37.1493 53.7038 36.1942 53.3757 34.8934 53.3757C33.8387 53.3757 32.9129 53.6569 32.1161 54.2194C31.3192 54.7819 30.6981 55.5202 30.2528 56.4343V69.987H27.0008V42.987H30.2528V53.2702ZM58.5712 69.987C58.3837 69.612 58.2313 68.944 58.1141 67.9831C56.6024 69.5534 54.7977 70.3386 52.7001 70.3386C50.8251 70.3386 49.284 69.8112 48.077 68.7565C46.8817 67.6901 46.284 66.3425 46.284 64.7136C46.284 62.7331 47.034 61.1979 48.534 60.1081C50.0458 59.0065 52.1669 58.4557 54.8973 58.4557H58.0614V56.9616C58.0614 55.8249 57.7215 54.9225 57.0419 54.2546C56.3622 53.5749 55.3602 53.235 54.036 53.235C52.8758 53.235 51.9032 53.528 51.118 54.114C50.3329 54.6999 49.9403 55.4089 49.9403 56.2409H46.6708C46.6708 55.2917 47.0047 54.3776 47.6727 53.4987C48.3524 52.6081 49.2665 51.905 50.4149 51.3893C51.5751 50.8737 52.8465 50.6159 54.2294 50.6159C56.4208 50.6159 58.1376 51.1667 59.3797 52.2682C60.6219 53.3581 61.2665 54.864 61.3133 56.7858V65.5397C61.3133 67.2858 61.536 68.6745 61.9813 69.7057V69.987H58.5712ZM53.1747 67.5085C54.1942 67.5085 55.161 67.2448 56.0751 66.7175C56.9891 66.1901 57.6512 65.5046 58.0614 64.6608V60.7585H55.5126C51.5282 60.7585 49.536 61.9245 49.536 64.2565C49.536 65.2761 49.8758 66.0729 50.5555 66.6472C51.2352 67.2214 52.1083 67.5085 53.1747 67.5085ZM69.4872 50.9675L69.5926 53.3581C71.0458 51.53 72.9442 50.6159 75.2879 50.6159C79.3075 50.6159 81.3348 52.8835 81.37 57.4186V69.987H78.118V57.4011C78.1063 56.03 77.7899 55.0163 77.1688 54.36C76.5594 53.7038 75.6044 53.3757 74.3036 53.3757C73.2489 53.3757 72.3231 53.6569 71.5262 54.2194C70.7294 54.7819 70.1083 55.5202 69.6629 56.4343V69.987H66.411V50.9675H69.4872ZM85.5008 60.319C85.5008 57.3542 86.1864 54.9987 87.5575 53.2526C88.9286 51.4948 90.745 50.6159 93.0067 50.6159C95.327 50.6159 97.1376 51.4362 98.4383 53.0768L98.5965 50.9675H101.567V69.53C101.567 71.9909 100.835 73.9304 99.37 75.3483C97.9169 76.7663 95.9598 77.4753 93.4989 77.4753C92.1278 77.4753 90.786 77.1823 89.4735 76.5964C88.161 76.0104 87.159 75.2077 86.4676 74.1882L88.1551 72.237C89.5497 73.9597 91.2547 74.821 93.2704 74.821C94.8524 74.821 96.0829 74.3757 96.9618 73.485C97.8524 72.5944 98.2977 71.3405 98.2977 69.7233V68.0886C96.9969 69.5886 95.2215 70.3386 92.9715 70.3386C90.745 70.3386 88.9403 69.4421 87.5575 67.6491C86.1864 65.8561 85.5008 63.4128 85.5008 60.319ZM88.7704 60.6882C88.7704 62.8327 89.2098 64.5202 90.0887 65.7507C90.9676 66.9694 92.1981 67.5788 93.7801 67.5788C95.8309 67.5788 97.3368 66.6472 98.2977 64.7839V56.1003C97.3016 54.2839 95.8075 53.3757 93.8153 53.3757C92.2333 53.3757 90.9969 53.9909 90.1063 55.2214C89.2157 56.4518 88.7704 58.2741 88.7704 60.6882ZM114.382 70.3386C111.804 70.3386 109.706 69.4948 108.089 67.8073C106.472 66.1081 105.663 63.8405 105.663 61.0046V60.4069C105.663 58.5202 106.02 56.8386 106.735 55.362C107.462 53.8737 108.47 52.7136 109.759 51.8815C111.059 51.0378 112.466 50.6159 113.977 50.6159C116.45 50.6159 118.372 51.4304 119.743 53.0593C121.114 54.6882 121.8 57.0202 121.8 60.0554V61.4089H108.915C108.962 63.2839 109.507 64.8015 110.55 65.9616C111.604 67.11 112.94 67.6843 114.557 67.6843C115.706 67.6843 116.679 67.4499 117.475 66.9811C118.272 66.5124 118.97 65.8913 119.567 65.1179L121.554 66.6647C119.96 69.114 117.569 70.3386 114.382 70.3386ZM113.977 53.2878C112.665 53.2878 111.563 53.7682 110.673 54.7292C109.782 55.6784 109.231 57.0143 109.02 58.737H118.548V58.4909C118.454 56.8386 118.009 55.5612 117.212 54.6589C116.415 53.7448 115.337 53.2878 113.977 53.2878ZM136.653 64.9421C136.653 64.0632 136.319 63.3835 135.651 62.903C134.995 62.4108 133.841 61.989 132.188 61.6374C130.548 61.2858 129.241 60.864 128.268 60.3718C127.307 59.8796 126.593 59.2936 126.124 58.614C125.667 57.9343 125.438 57.1257 125.438 56.1882C125.438 54.6296 126.095 53.3112 127.407 52.2331C128.731 51.155 130.419 50.6159 132.47 50.6159C134.626 50.6159 136.372 51.1725 137.708 52.2858C139.056 53.3991 139.729 54.8229 139.729 56.5573H136.46C136.46 55.6667 136.079 54.8991 135.317 54.2546C134.567 53.61 133.618 53.2878 132.47 53.2878C131.286 53.2878 130.36 53.5456 129.692 54.0612C129.024 54.5768 128.69 55.2507 128.69 56.0827C128.69 56.8679 129.001 57.4597 129.622 57.8581C130.243 58.2565 131.362 58.6374 132.979 59.0007C134.608 59.364 135.927 59.7975 136.934 60.3015C137.942 60.8054 138.686 61.4147 139.167 62.1296C139.659 62.8327 139.905 63.694 139.905 64.7136C139.905 66.4128 139.225 67.778 137.866 68.8093C136.507 69.8288 134.743 70.3386 132.575 70.3386C131.052 70.3386 129.704 70.069 128.532 69.53C127.36 68.9909 126.44 68.2409 125.772 67.28C125.116 66.3073 124.788 65.2585 124.788 64.1335H128.04C128.098 65.2233 128.532 66.0905 129.341 66.735C130.161 67.3679 131.239 67.6843 132.575 67.6843C133.806 67.6843 134.79 67.4382 135.528 66.946C136.278 66.4421 136.653 65.7741 136.653 64.9421ZM8.93053 109.684C10.0907 109.684 11.1044 109.333 11.9715 108.63C12.8387 107.926 13.3192 107.048 13.4129 105.993H16.4891C16.4305 107.083 16.0555 108.12 15.3641 109.104C14.6727 110.089 13.7469 110.874 12.5868 111.46C11.4383 112.046 10.2196 112.339 8.93053 112.339C6.34068 112.339 4.27818 111.477 2.74303 109.755C1.21959 108.02 0.45787 105.653 0.45787 102.653V102.108C0.45787 100.257 0.797714 98.61 1.4774 97.1686C2.15709 95.7272 3.12975 94.6081 4.39537 93.8112C5.67271 93.0143 7.17857 92.6159 8.91295 92.6159C11.0458 92.6159 12.8153 93.2546 14.2215 94.5319C15.6395 95.8093 16.3954 97.4675 16.4891 99.5065H13.4129C13.3192 98.2761 12.8504 97.2682 12.0067 96.4831C11.1747 95.6862 10.1434 95.2878 8.91295 95.2878C7.2606 95.2878 5.9774 95.8854 5.06334 97.0807C4.161 98.2643 3.70982 99.9811 3.70982 102.231V102.846C3.70982 105.038 4.161 106.725 5.06334 107.909C5.96568 109.092 7.25475 109.684 8.93053 109.684ZM23.3973 95.2702C24.8387 93.5007 26.7137 92.6159 29.0223 92.6159C33.0419 92.6159 35.0692 94.8835 35.1044 99.4186V111.987H31.8524V99.4011C31.8407 98.03 31.5243 97.0163 30.9032 96.36C30.2938 95.7038 29.3387 95.3757 28.0379 95.3757C26.9833 95.3757 26.0575 95.6569 25.2606 96.2194C24.4637 96.7819 23.8426 97.5202 23.3973 98.4343V111.987H20.1454V84.987H23.3973V95.2702ZM43.5067 111.987H40.2547V92.9675H43.5067V111.987ZM39.9911 87.9225C39.9911 87.3952 40.1493 86.9499 40.4657 86.5866C40.7938 86.2233 41.2743 86.0417 41.9071 86.0417C42.5399 86.0417 43.0204 86.2233 43.3485 86.5866C43.6766 86.9499 43.8407 87.3952 43.8407 87.9225C43.8407 88.4499 43.6766 88.8893 43.3485 89.2409C43.0204 89.5925 42.5399 89.7682 41.9071 89.7682C41.2743 89.7682 40.7938 89.5925 40.4657 89.2409C40.1493 88.8893 39.9911 88.4499 39.9911 87.9225ZM52.2606 111.987H49.0087V84.987H52.2606V111.987ZM56.6903 102.319C56.6903 99.4011 57.3817 97.0573 58.7645 95.2878C60.1473 93.5065 61.9579 92.6159 64.1962 92.6159C66.4227 92.6159 68.1864 93.3776 69.4872 94.9011V84.987H72.7391V111.987H69.7508L69.5926 109.948C68.2919 111.542 66.4813 112.339 64.161 112.339C61.9579 112.339 60.159 111.436 58.7645 109.632C57.3817 107.827 56.6903 105.471 56.6903 102.565V102.319ZM59.9422 102.688C59.9422 104.844 60.3876 106.532 61.2782 107.751C62.1688 108.969 63.3993 109.579 64.9696 109.579C67.0321 109.579 68.5379 108.653 69.4872 106.801V98.0651C68.5145 96.2722 67.0204 95.3757 65.0047 95.3757C63.411 95.3757 62.1688 95.9909 61.2782 97.2214C60.3876 98.4518 59.9422 100.274 59.9422 102.688ZM86.995 95.8854C86.5028 95.8034 85.9696 95.7624 85.3954 95.7624C83.2626 95.7624 81.8153 96.6706 81.0536 98.487V111.987H77.8016V92.9675H80.9657L81.0184 95.1647C82.0848 93.4655 83.5965 92.6159 85.5536 92.6159C86.1864 92.6159 86.6669 92.6979 86.995 92.862V95.8854ZM97.5419 112.339C94.9637 112.339 92.8661 111.495 91.2489 109.807C89.6317 108.108 88.8231 105.841 88.8231 103.005V102.407C88.8231 100.52 89.1805 98.8386 89.8954 97.362C90.6219 95.8737 91.6297 94.7136 92.9188 93.8815C94.2196 93.0378 95.6258 92.6159 97.1376 92.6159C99.6102 92.6159 101.532 93.4304 102.903 95.0593C104.274 96.6882 104.96 99.0202 104.96 102.055V103.409H92.0751C92.1219 105.284 92.6669 106.801 93.7098 107.962C94.7645 109.11 96.1004 109.684 97.7176 109.684C98.8661 109.684 99.8387 109.45 100.636 108.981C101.432 108.512 102.13 107.891 102.727 107.118L104.714 108.665C103.12 111.114 100.729 112.339 97.5419 112.339ZM97.1376 95.2878C95.8251 95.2878 94.7235 95.7682 93.8329 96.7292C92.9422 97.6784 92.3915 99.0143 92.1805 100.737H101.708V100.491C101.614 98.8386 101.169 97.5612 100.372 96.6589C99.5751 95.7448 98.4969 95.2878 97.1376 95.2878ZM111.815 92.9675L111.921 95.3581C113.374 93.53 115.272 92.6159 117.616 92.6159C121.636 92.6159 123.663 94.8835 123.698 99.4186V111.987H120.446V99.4011C120.434 98.03 120.118 97.0163 119.497 96.36C118.888 95.7038 117.932 95.3757 116.632 95.3757C115.577 95.3757 114.651 95.6569 113.854 96.2194C113.057 96.7819 112.436 97.5202 111.991 98.4343V111.987H108.739V92.9675H111.815ZM127.425 93.6003L125.579 92.3347C126.669 90.8112 127.231 89.2057 127.266 87.5182V84.987H130.483V87.2722C130.472 88.444 130.179 89.6159 129.604 90.7878C129.042 91.9479 128.315 92.8854 127.425 93.6003ZM143.509 106.942C143.509 106.063 143.175 105.383 142.507 104.903C141.85 104.411 140.696 103.989 139.044 103.637C137.403 103.286 136.097 102.864 135.124 102.372C134.163 101.88 133.448 101.294 132.979 100.614C132.522 99.9343 132.294 99.1257 132.294 98.1882C132.294 96.6296 132.95 95.3112 134.263 94.2331C135.587 93.155 137.274 92.6159 139.325 92.6159C141.481 92.6159 143.227 93.1725 144.563 94.2858C145.911 95.3991 146.585 96.8229 146.585 98.5573H143.315C143.315 97.6667 142.934 96.8991 142.173 96.2546C141.423 95.61 140.473 95.2878 139.325 95.2878C138.141 95.2878 137.216 95.5456 136.548 96.0612C135.88 96.5768 135.546 97.2507 135.546 98.0827C135.546 98.8679 135.856 99.4597 136.477 99.8581C137.098 100.257 138.218 100.637 139.835 101.001C141.464 101.364 142.782 101.798 143.79 102.301C144.798 102.805 145.542 103.415 146.022 104.13C146.515 104.833 146.761 105.694 146.761 106.714C146.761 108.413 146.081 109.778 144.722 110.809C143.362 111.829 141.598 112.339 139.431 112.339C137.907 112.339 136.559 112.069 135.388 111.53C134.216 110.991 133.296 110.241 132.628 109.28C131.972 108.307 131.643 107.258 131.643 106.133H134.895C134.954 107.223 135.388 108.091 136.196 108.735C137.016 109.368 138.095 109.684 139.431 109.684C140.661 109.684 141.645 109.438 142.384 108.946C143.134 108.442 143.509 107.774 143.509 106.942ZM5.32701 153.987H2.07506V126.987H5.32701V153.987ZM14.0809 153.987H10.829V134.967H14.0809V153.987ZM10.5653 129.923C10.5653 129.395 10.7235 128.95 11.0399 128.587C11.368 128.223 11.8485 128.042 12.4813 128.042C13.1141 128.042 13.5946 128.223 13.9227 128.587C14.2508 128.95 14.4149 129.395 14.4149 129.923C14.4149 130.45 14.2508 130.889 13.9227 131.241C13.5946 131.592 13.1141 131.768 12.4813 131.768C11.8485 131.768 11.368 131.592 11.0399 131.241C10.7235 130.889 10.5653 130.45 10.5653 129.923ZM25.577 149.575L30.2879 134.967H33.6102L26.7899 153.987H24.3114L17.4208 134.967H20.743L25.577 149.575ZM44.3856 154.339C41.8075 154.339 39.7098 153.495 38.0926 151.807C36.4754 150.108 35.6669 147.841 35.6669 145.005V144.407C35.6669 142.52 36.0243 140.839 36.7391 139.362C37.4657 137.874 38.4735 136.714 39.7626 135.882C41.0633 135.038 42.4696 134.616 43.9813 134.616C46.454 134.616 48.3758 135.43 49.7469 137.059C51.118 138.688 51.8036 141.02 51.8036 144.055V145.409H38.9188C38.9657 147.284 39.5106 148.801 40.5536 149.962C41.6083 151.11 42.9442 151.684 44.5614 151.684C45.7098 151.684 46.6825 151.45 47.4794 150.981C48.2762 150.512 48.9735 149.891 49.5712 149.118L51.5575 150.665C49.9637 153.114 47.5731 154.339 44.3856 154.339ZM43.9813 137.288C42.6688 137.288 41.5672 137.768 40.6766 138.729C39.786 139.678 39.2352 141.014 39.0243 142.737H48.5516V142.491C48.4579 140.839 48.0126 139.561 47.2157 138.659C46.4188 137.745 45.3407 137.288 43.9813 137.288ZM66.6571 148.942C66.6571 148.063 66.3231 147.383 65.6551 146.903C64.9989 146.411 63.8446 145.989 62.1922 145.637C60.5516 145.286 59.245 144.864 58.2723 144.372C57.3114 143.88 56.5965 143.294 56.1278 142.614C55.6708 141.934 55.4422 141.126 55.4422 140.188C55.4422 138.63 56.0985 137.311 57.411 136.233C58.7352 135.155 60.4227 134.616 62.4735 134.616C64.6297 134.616 66.3758 135.173 67.7118 136.286C69.0594 137.399 69.7333 138.823 69.7333 140.557H66.4637C66.4637 139.667 66.0829 138.899 65.3212 138.255C64.5712 137.61 63.6219 137.288 62.4735 137.288C61.2899 137.288 60.3641 137.546 59.6962 138.061C59.0282 138.577 58.6942 139.251 58.6942 140.083C58.6942 140.868 59.0047 141.46 59.6258 141.858C60.2469 142.257 61.3661 142.637 62.9833 143.001C64.6122 143.364 65.9305 143.798 66.9383 144.301C67.9462 144.805 68.6903 145.415 69.1708 146.13C69.6629 146.833 69.909 147.694 69.909 148.714C69.909 150.413 69.2294 151.778 67.87 152.809C66.5106 153.829 64.7469 154.339 62.579 154.339C61.0555 154.339 59.7079 154.069 58.536 153.53C57.3641 152.991 56.4442 152.241 55.7762 151.28C55.12 150.307 54.7919 149.258 54.7919 148.133H58.0438C58.1024 149.223 58.536 150.091 59.3446 150.735C60.1649 151.368 61.243 151.684 62.579 151.684C63.8094 151.684 64.7938 151.438 65.5321 150.946C66.2821 150.442 66.6571 149.774 66.6571 148.942ZM99.9149 149.505L103.571 134.967H106.823L101.286 153.987H98.6493L94.0262 139.573L89.5262 153.987H86.8895L81.37 134.967H84.6044L88.3485 149.206L92.7782 134.967H95.3973L99.9149 149.505ZM113.679 153.987H110.427V134.967H113.679V153.987ZM110.163 129.923C110.163 129.395 110.321 128.95 110.638 128.587C110.966 128.223 111.446 128.042 112.079 128.042C112.712 128.042 113.192 128.223 113.52 128.587C113.848 128.95 114.013 129.395 114.013 129.923C114.013 130.45 113.848 130.889 113.52 131.241C113.192 131.592 112.712 131.768 112.079 131.768C111.446 131.768 110.966 131.592 110.638 131.241C110.321 130.889 110.163 130.45 110.163 129.923ZM123.311 130.362V134.967H126.862V137.481H123.311V149.276C123.311 150.038 123.47 150.612 123.786 150.999C124.102 151.374 124.641 151.561 125.403 151.561C125.778 151.561 126.294 151.491 126.95 151.35V153.987C126.095 154.221 125.263 154.339 124.454 154.339C123.001 154.339 121.905 153.899 121.167 153.02C120.429 152.141 120.059 150.893 120.059 149.276V137.481H116.597V134.967H120.059V130.362H123.311ZM133.929 137.27C135.37 135.501 137.245 134.616 139.554 134.616C143.573 134.616 145.6 136.883 145.636 141.419V153.987H142.384V141.401C142.372 140.03 142.056 139.016 141.434 138.36C140.825 137.704 139.87 137.376 138.569 137.376C137.515 137.376 136.589 137.657 135.792 138.219C134.995 138.782 134.374 139.52 133.929 140.434V153.987H130.677V126.987H133.929V137.27ZM5.60826 179.27C7.04967 177.501 8.92467 176.616 11.2333 176.616C15.2528 176.616 17.2801 178.883 17.3153 183.419V195.987H14.0633V183.401C14.0516 182.03 13.7352 181.016 13.1141 180.36C12.5047 179.704 11.5497 179.376 10.2489 179.376C9.1942 179.376 8.26842 179.657 7.47154 180.219C6.67467 180.782 6.05357 181.52 5.60826 182.434V195.987H2.35631V168.987H5.60826V179.27ZM30.077 196.339C27.4989 196.339 25.4012 195.495 23.784 193.807C22.1669 192.108 21.3583 189.841 21.3583 187.005V186.407C21.3583 184.52 21.7157 182.839 22.4305 181.362C23.1571 179.874 24.1649 178.714 25.454 177.882C26.7547 177.038 28.161 176.616 29.6727 176.616C32.1454 176.616 34.0672 177.43 35.4383 179.059C36.8094 180.688 37.495 183.02 37.495 186.055V187.409H24.6102C24.6571 189.284 25.202 190.801 26.245 191.962C27.2997 193.11 28.6356 193.684 30.2528 193.684C31.4012 193.684 32.3739 193.45 33.1708 192.981C33.9676 192.512 34.6649 191.891 35.2626 191.118L37.2489 192.665C35.6551 195.114 33.2645 196.339 30.077 196.339ZM29.6727 179.288C28.3602 179.288 27.2587 179.768 26.368 180.729C25.4774 181.678 24.9266 183.014 24.7157 184.737H34.243V184.491C34.1493 182.839 33.704 181.561 32.9071 180.659C32.1102 179.745 31.0321 179.288 29.6727 179.288ZM50.4676 179.885C49.9754 179.803 49.4422 179.762 48.868 179.762C46.7352 179.762 45.2879 180.671 44.5262 182.487V195.987H41.2743V176.967H44.4383L44.4911 179.165C45.5575 177.466 47.0692 176.616 49.0262 176.616C49.659 176.616 50.1395 176.698 50.4676 176.862V179.885ZM79.243 191.505L82.8993 176.967H86.1512L80.6141 195.987H77.9774L73.3544 181.573L68.8544 195.987H66.2176L60.6981 176.967H63.9325L67.6766 191.206L72.1063 176.967H74.7254L79.243 191.505ZM88.6122 186.301C88.6122 184.438 88.9754 182.762 89.702 181.274C90.4403 179.786 91.4598 178.637 92.7606 177.829C94.0731 177.02 95.5672 176.616 97.243 176.616C99.8329 176.616 101.925 177.512 103.518 179.305C105.124 181.098 105.927 183.483 105.927 186.46V186.688C105.927 188.54 105.569 190.204 104.854 191.68C104.151 193.145 103.138 194.288 101.813 195.108C100.501 195.928 98.9891 196.339 97.2782 196.339C94.7001 196.339 92.6083 195.442 91.0028 193.649C89.409 191.856 88.6122 189.483 88.6122 186.53V186.301ZM91.8817 186.688C91.8817 188.798 92.368 190.491 93.3407 191.768C94.3251 193.046 95.6376 193.684 97.2782 193.684C98.9305 193.684 100.243 193.04 101.216 191.751C102.188 190.45 102.675 188.633 102.675 186.301C102.675 184.216 102.177 182.528 101.181 181.239C100.196 179.938 98.8837 179.288 97.243 179.288C95.6376 179.288 94.3426 179.926 93.3583 181.204C92.3739 182.481 91.8817 184.309 91.8817 186.688ZM119.198 179.885C118.706 179.803 118.173 179.762 117.598 179.762C115.466 179.762 114.018 180.671 113.257 182.487V195.987H110.005V176.967H113.169L113.222 179.165C114.288 177.466 115.8 176.616 117.757 176.616C118.39 176.616 118.87 176.698 119.198 176.862V179.885ZM127.513 187.18L125.473 189.307V195.987H122.222V168.987H125.473V185.317L127.214 183.225L133.138 176.967H137.093L129.692 184.913L137.954 195.987H134.14L127.513 187.18ZM140.52 194.282C140.52 193.719 140.684 193.251 141.013 192.876C141.352 192.501 141.856 192.313 142.524 192.313C143.192 192.313 143.696 192.501 144.036 192.876C144.388 193.251 144.563 193.719 144.563 194.282C144.563 194.821 144.388 195.272 144.036 195.635C143.696 195.999 143.192 196.18 142.524 196.18C141.856 196.18 141.352 195.999 141.013 195.635C140.684 195.272 140.52 194.821 140.52 194.282Z" fill="#6B6565"/>
</svg>
