<svg width="172" height="197" viewBox="0 0 172 197" fill="none" xmlns="http://www.w3.org/2000/svg">
<path d="M27.6868 16.2725C24.7923 15.4404 22.6829 14.4209 21.3587 13.2139C20.0462 11.9951 19.3899 10.4951 19.3899 8.71387C19.3899 6.69824 20.1927 5.03418 21.7981 3.72168C23.4153 2.39746 25.513 1.73535 28.0911 1.73535C29.8489 1.73535 31.4134 2.0752 32.7845 2.75488C34.1673 3.43457 35.2337 4.37207 35.9837 5.56738C36.7454 6.7627 37.1263 8.06934 37.1263 9.4873H33.7337C33.7337 7.94043 33.2415 6.72754 32.2571 5.84863C31.2728 4.95801 29.8841 4.5127 28.0911 4.5127C26.427 4.5127 25.1263 4.88184 24.1888 5.62012C23.263 6.34668 22.8001 7.36035 22.8001 8.66113C22.8001 9.7041 23.2395 10.5889 24.1185 11.3154C25.0091 12.0303 26.5149 12.6865 28.636 13.2842C30.7688 13.8818 32.4329 14.5439 33.6282 15.2705C34.8353 15.9854 35.7259 16.8232 36.3001 17.7842C36.886 18.7451 37.179 19.876 37.179 21.1768C37.179 23.251 36.3704 24.915 34.7532 26.1689C33.136 27.4111 30.9739 28.0322 28.2669 28.0322C26.5091 28.0322 24.8685 27.6982 23.345 27.0303C21.8216 26.3506 20.6438 25.4248 19.8118 24.2529C18.9915 23.0811 18.5813 21.751 18.5813 20.2627H21.9739C21.9739 21.8096 22.5423 23.0342 23.679 23.9365C24.8274 24.8271 26.3567 25.2725 28.2669 25.2725C30.0481 25.2725 31.4134 24.9092 32.3626 24.1826C33.3118 23.4561 33.7864 22.4658 33.7864 21.2119C33.7864 19.958 33.347 18.9912 32.4681 18.3115C31.5892 17.6201 29.9954 16.9404 27.6868 16.2725ZM44.263 10.9639C45.7044 9.19434 47.5794 8.30957 49.888 8.30957C53.9075 8.30957 55.9349 10.5771 55.97 15.1123V27.6807H52.7181V15.0947C52.7063 13.7236 52.3899 12.71 51.7688 12.0537C51.1595 11.3975 50.2044 11.0693 48.9036 11.0693C47.8489 11.0693 46.9231 11.3506 46.1263 11.9131C45.3294 12.4756 44.7083 13.2139 44.263 14.1279V27.6807H41.011V0.680664H44.263V10.9639ZM68.7317 28.0322C66.1536 28.0322 64.056 27.1885 62.4388 25.501C60.8216 23.8018 60.013 21.5342 60.013 18.6982V18.1006C60.013 16.2139 60.3704 14.5322 61.0853 13.0557C61.8118 11.5674 62.8196 10.4072 64.1087 9.5752C65.4095 8.73145 66.8157 8.30957 68.3274 8.30957C70.8001 8.30957 72.722 9.12402 74.0931 10.7529C75.4642 12.3818 76.1497 14.7139 76.1497 17.749V19.1025H63.2649C63.3118 20.9775 63.8567 22.4951 64.8997 23.6553C65.9544 24.8037 67.2903 25.3779 68.9075 25.3779C70.056 25.3779 71.0286 25.1436 71.8255 24.6748C72.6224 24.2061 73.3196 23.585 73.9173 22.8115L75.9036 24.3584C74.3099 26.8076 71.9192 28.0322 68.7317 28.0322ZM68.3274 10.9814C67.0149 10.9814 65.9134 11.4619 65.0228 12.4229C64.1321 13.3721 63.5813 14.708 63.3704 16.4307H72.8978V16.1846C72.804 14.5322 72.3587 13.2549 71.5618 12.3525C70.7649 11.4385 69.6868 10.9814 68.3274 10.9814ZM99.9329 22.6357C99.9329 21.7568 99.5989 21.0771 98.931 20.5967C98.2747 20.1045 97.1204 19.6826 95.4681 19.3311C93.8274 18.9795 92.5208 18.5576 91.5481 18.0654C90.5872 17.5732 89.8724 16.9873 89.4036 16.3076C88.9466 15.6279 88.7181 14.8193 88.7181 13.8818C88.7181 12.3232 89.3743 11.0049 90.6868 9.92676C92.011 8.84863 93.6985 8.30957 95.7493 8.30957C97.9056 8.30957 99.6517 8.86621 100.988 9.97949C102.335 11.0928 103.009 12.5166 103.009 14.251H99.7395C99.7395 13.3604 99.3587 12.5928 98.597 11.9482C97.847 11.3037 96.8978 10.9814 95.7493 10.9814C94.5657 10.9814 93.6399 11.2393 92.972 11.7549C92.304 12.2705 91.97 12.9443 91.97 13.7764C91.97 14.5615 92.2806 15.1533 92.9017 15.5518C93.5228 15.9502 94.6419 16.3311 96.2591 16.6943C97.888 17.0576 99.2063 17.4912 100.214 17.9951C101.222 18.499 101.966 19.1084 102.447 19.8232C102.939 20.5264 103.185 21.3877 103.185 22.4072C103.185 24.1064 102.505 25.4717 101.146 26.5029C99.7864 27.5225 98.0228 28.0322 95.8548 28.0322C94.3313 28.0322 92.9837 27.7627 91.8118 27.2236C90.6399 26.6846 89.72 25.9346 89.052 24.9736C88.3958 24.001 88.0677 22.9521 88.0677 21.8271H91.3196C91.3782 22.917 91.8118 23.7842 92.6204 24.4287C93.4407 25.0615 94.5188 25.3779 95.8548 25.3779C97.0853 25.3779 98.0696 25.1318 98.8079 24.6396C99.5579 24.1357 99.9329 23.4678 99.9329 22.6357ZM115.314 28.0322C112.736 28.0322 110.638 27.1885 109.021 25.501C107.404 23.8018 106.595 21.5342 106.595 18.6982V18.1006C106.595 16.2139 106.952 14.5322 107.667 13.0557C108.394 11.5674 109.402 10.4072 110.691 9.5752C111.992 8.73145 113.398 8.30957 114.909 8.30957C117.382 8.30957 119.304 9.12402 120.675 10.7529C122.046 12.3818 122.732 14.7139 122.732 17.749V19.1025H109.847C109.894 20.9775 110.439 22.4951 111.482 23.6553C112.536 24.8037 113.872 25.3779 115.49 25.3779C116.638 25.3779 117.611 25.1436 118.408 24.6748C119.204 24.2061 119.902 23.585 120.499 22.8115L122.486 24.3584C120.892 26.8076 118.501 28.0322 115.314 28.0322ZM114.909 10.9814C113.597 10.9814 112.495 11.4619 111.605 12.4229C110.714 13.3721 110.163 14.708 109.952 16.4307H119.48V16.1846C119.386 14.5322 118.941 13.2549 118.144 12.3525C117.347 11.4385 116.269 10.9814 114.909 10.9814ZM130.923 4.05566V8.66113H134.474V11.1748H130.923V22.9697C130.923 23.7314 131.081 24.3057 131.398 24.6924C131.714 25.0674 132.253 25.2549 133.015 25.2549C133.39 25.2549 133.906 25.1846 134.562 25.0439V27.6807C133.706 27.915 132.874 28.0322 132.066 28.0322C130.613 28.0322 129.517 27.5928 128.779 26.7139C128.04 25.835 127.671 24.5869 127.671 22.9697V11.1748H124.208V8.66113H127.671V4.05566H130.923ZM149.363 22.6357C149.363 21.7568 149.029 21.0771 148.361 20.5967C147.704 20.1045 146.55 19.6826 144.898 19.3311C143.257 18.9795 141.95 18.5576 140.978 18.0654C140.017 17.5732 139.302 16.9873 138.833 16.3076C138.376 15.6279 138.148 14.8193 138.148 13.8818C138.148 12.3232 138.804 11.0049 140.117 9.92676C141.441 8.84863 143.128 8.30957 145.179 8.30957C147.335 8.30957 149.081 8.86621 150.417 9.97949C151.765 11.0928 152.439 12.5166 152.439 14.251H149.169C149.169 13.3604 148.788 12.5928 148.027 11.9482C147.277 11.3037 146.327 10.9814 145.179 10.9814C143.995 10.9814 143.07 11.2393 142.402 11.7549C141.734 12.2705 141.4 12.9443 141.4 13.7764C141.4 14.5615 141.71 15.1533 142.331 15.5518C142.952 15.9502 144.072 16.3311 145.689 16.6943C147.318 17.0576 148.636 17.4912 149.644 17.9951C150.652 18.499 151.396 19.1084 151.876 19.8232C152.368 20.5264 152.615 21.3877 152.615 22.4072C152.615 24.1064 151.935 25.4717 150.575 26.5029C149.216 27.5225 147.452 28.0322 145.284 28.0322C143.761 28.0322 142.413 27.7627 141.242 27.2236C140.07 26.6846 139.15 25.9346 138.482 24.9736C137.825 24.001 137.497 22.9521 137.497 21.8271H140.749C140.808 22.917 141.242 23.7842 142.05 24.4287C142.87 25.0615 143.949 25.3779 145.284 25.3779C146.515 25.3779 147.499 25.1318 148.238 24.6396C148.988 24.1357 149.363 23.4678 149.363 22.6357ZM4.27275 69.6807H1.0208V50.6611H4.27275V69.6807ZM0.757126 45.6162C0.757126 45.0889 0.915329 44.6436 1.23174 44.2803C1.55986 43.917 2.04033 43.7354 2.67314 43.7354C3.30595 43.7354 3.78642 43.917 4.11455 44.2803C4.44267 44.6436 4.60674 45.0889 4.60674 45.6162C4.60674 46.1436 4.44267 46.583 4.11455 46.9346C3.78642 47.2861 3.30595 47.4619 2.67314 47.4619C2.04033 47.4619 1.55986 47.2861 1.23174 46.9346C0.915329 46.583 0.757126 46.1436 0.757126 45.6162ZM12.552 50.6611L12.6399 52.7705C14.0345 51.1299 15.9153 50.3096 18.2825 50.3096C20.9427 50.3096 22.7532 51.3291 23.7142 53.3682C24.347 52.4541 25.1673 51.7158 26.1751 51.1533C27.1946 50.5908 28.3958 50.3096 29.7786 50.3096C33.9505 50.3096 36.0716 52.5186 36.1419 56.9365V69.6807H32.8899V57.1299C32.8899 55.7705 32.5794 54.7568 31.9583 54.0889C31.3372 53.4092 30.2942 53.0693 28.8294 53.0693C27.6224 53.0693 26.6204 53.4326 25.8235 54.1592C25.0267 54.874 24.5638 55.8408 24.4349 57.0596V69.6807H21.1653V57.2178C21.1653 54.4521 19.8118 53.0693 17.1048 53.0693C14.972 53.0693 13.513 53.9775 12.7278 55.7939V69.6807H9.47588V50.6611H12.552ZM57.1302 60.3818C57.1302 63.2764 56.4681 65.6084 55.1438 67.3779C53.8196 69.1475 52.0267 70.0322 49.7649 70.0322C47.4563 70.0322 45.6399 69.2998 44.3157 67.835V76.9932H41.0638V50.6611H44.0345L44.1927 52.7705C45.5169 51.1299 47.3567 50.3096 49.7122 50.3096C51.9974 50.3096 53.802 51.1709 55.1263 52.8936C56.4622 54.6162 57.1302 57.0127 57.1302 60.083V60.3818ZM53.8782 60.0127C53.8782 57.8682 53.4212 56.1748 52.5071 54.9326C51.5931 53.6904 50.3392 53.0693 48.7454 53.0693C46.7767 53.0693 45.3001 53.9424 44.3157 55.6885V64.7764C45.2884 66.5107 46.7767 67.3779 48.7806 67.3779C50.3392 67.3779 51.5755 66.7627 52.4895 65.5322C53.4153 64.29 53.8782 62.4502 53.8782 60.0127ZM60.4173 59.9951C60.4173 58.1318 60.7806 56.4561 61.5071 54.9678C62.2454 53.4795 63.2649 52.3311 64.5657 51.5225C65.8782 50.7139 67.3724 50.3096 69.0481 50.3096C71.638 50.3096 73.7298 51.2061 75.3235 52.999C76.929 54.792 77.7317 57.1768 77.7317 60.1533V60.3818C77.7317 62.2334 77.3743 63.8975 76.6595 65.374C75.9563 66.8389 74.9427 67.9814 73.6185 68.8018C72.306 69.6221 70.7942 70.0322 69.0833 70.0322C66.5052 70.0322 64.4134 69.1357 62.8079 67.3428C61.2142 65.5498 60.4173 63.1768 60.4173 60.2236V59.9951ZM63.6868 60.3818C63.6868 62.4912 64.1731 64.1846 65.1458 65.4619C66.1302 66.7393 67.4427 67.3779 69.0833 67.3779C70.7356 67.3779 72.0481 66.7334 73.0208 65.4443C73.9935 64.1436 74.4798 62.3271 74.4798 59.9951C74.4798 57.9092 73.9817 56.2217 72.9856 54.9326C72.0013 53.6318 70.6888 52.9814 69.0481 52.9814C67.4427 52.9814 66.1478 53.6201 65.1634 54.8975C64.179 56.1748 63.6868 58.0029 63.6868 60.3818ZM92.8841 64.6357C92.8841 63.7568 92.5501 63.0771 91.8821 62.5967C91.2259 62.1045 90.0716 61.6826 88.4192 61.3311C86.7786 60.9795 85.472 60.5576 84.4993 60.0654C83.5384 59.5732 82.8235 58.9873 82.3548 58.3076C81.8978 57.6279 81.6692 56.8193 81.6692 55.8818C81.6692 54.3232 82.3255 53.0049 83.638 51.9268C84.9622 50.8486 86.6497 50.3096 88.7005 50.3096C90.8567 50.3096 92.6028 50.8662 93.9388 51.9795C95.2864 53.0928 95.9603 54.5166 95.9603 56.251H92.6907C92.6907 55.3604 92.3099 54.5928 91.5481 53.9482C90.7981 53.3037 89.8489 52.9814 88.7005 52.9814C87.5169 52.9814 86.5911 53.2393 85.9231 53.7549C85.2552 54.2705 84.9212 54.9443 84.9212 55.7764C84.9212 56.5615 85.2317 57.1533 85.8528 57.5518C86.4739 57.9502 87.5931 58.3311 89.2103 58.6943C90.8392 59.0576 92.1575 59.4912 93.1653 59.9951C94.1731 60.499 94.9173 61.1084 95.3978 61.8232C95.8899 62.5264 96.136 63.3877 96.136 64.4072C96.136 66.1064 95.4563 67.4717 94.097 68.5029C92.7376 69.5225 90.9739 70.0322 88.806 70.0322C87.2825 70.0322 85.9349 69.7627 84.763 69.2236C83.5911 68.6846 82.6712 67.9346 82.0032 66.9736C81.347 66.001 81.0188 64.9521 81.0188 63.8271H84.2708C84.3294 64.917 84.763 65.7842 85.5716 66.4287C86.3919 67.0615 87.47 67.3779 88.806 67.3779C90.0364 67.3779 91.0208 67.1318 91.7591 66.6396C92.5091 66.1357 92.8841 65.4678 92.8841 64.6357ZM111.447 64.6357C111.447 63.7568 111.113 63.0771 110.445 62.5967C109.788 62.1045 108.634 61.6826 106.982 61.3311C105.341 60.9795 104.034 60.5576 103.062 60.0654C102.101 59.5732 101.386 58.9873 100.917 58.3076C100.46 57.6279 100.232 56.8193 100.232 55.8818C100.232 54.3232 100.888 53.0049 102.2 51.9268C103.525 50.8486 105.212 50.3096 107.263 50.3096C109.419 50.3096 111.165 50.8662 112.501 51.9795C113.849 53.0928 114.523 54.5166 114.523 56.251H111.253C111.253 55.3604 110.872 54.5928 110.111 53.9482C109.361 53.3037 108.411 52.9814 107.263 52.9814C106.079 52.9814 105.154 53.2393 104.486 53.7549C103.818 54.2705 103.484 54.9443 103.484 55.7764C103.484 56.5615 103.794 57.1533 104.415 57.5518C105.036 57.9502 106.156 58.3311 107.773 58.6943C109.402 59.0576 110.72 59.4912 111.728 59.9951C112.736 60.499 113.48 61.1084 113.96 61.8232C114.452 62.5264 114.699 63.3877 114.699 64.4072C114.699 66.1064 114.019 67.4717 112.659 68.5029C111.3 69.5225 109.536 70.0322 107.368 70.0322C105.845 70.0322 104.497 69.7627 103.325 69.2236C102.154 68.6846 101.234 67.9346 100.566 66.9736C99.9095 66.001 99.5813 64.9521 99.5813 63.8271H102.833C102.892 64.917 103.325 65.7842 104.134 66.4287C104.954 67.0615 106.033 67.3779 107.368 67.3779C108.599 67.3779 109.583 67.1318 110.322 66.6396C111.072 66.1357 111.447 65.4678 111.447 64.6357ZM122.468 69.6807H119.216V50.6611H122.468V69.6807ZM118.952 45.6162C118.952 45.0889 119.111 44.6436 119.427 44.2803C119.755 43.917 120.236 43.7354 120.868 43.7354C121.501 43.7354 121.982 43.917 122.31 44.2803C122.638 44.6436 122.802 45.0889 122.802 45.6162C122.802 46.1436 122.638 46.583 122.31 46.9346C121.982 47.2861 121.501 47.4619 120.868 47.4619C120.236 47.4619 119.755 47.2861 119.427 46.9346C119.111 46.583 118.952 46.1436 118.952 45.6162ZM143.79 60.3818C143.79 63.2881 143.122 65.626 141.786 67.3955C140.45 69.1533 138.658 70.0322 136.408 70.0322C134.005 70.0322 132.148 69.1826 130.835 67.4834L130.677 69.6807H127.689V42.6807H130.941V52.7529C132.253 51.124 134.064 50.3096 136.372 50.3096C138.681 50.3096 140.492 51.1826 141.804 52.9287C143.128 54.6748 143.79 57.0654 143.79 60.1006V60.3818ZM140.538 60.0127C140.538 57.7979 140.111 56.0869 139.255 54.8799C138.4 53.6729 137.169 53.0693 135.564 53.0693C133.419 53.0693 131.878 54.0654 130.941 56.0576V64.2842C131.937 66.2764 133.49 67.2725 135.599 67.2725C137.158 67.2725 138.37 66.6689 139.238 65.4619C140.105 64.2549 140.538 62.4385 140.538 60.0127ZM151.437 69.6807H148.185V42.6807H151.437V69.6807ZM164.55 70.0322C161.972 70.0322 159.874 69.1885 158.257 67.501C156.64 65.8018 155.831 63.5342 155.831 60.6982V60.1006C155.831 58.2139 156.189 56.5322 156.904 55.0557C157.63 53.5674 158.638 52.4072 159.927 51.5752C161.228 50.7314 162.634 50.3096 164.146 50.3096C166.618 50.3096 168.54 51.124 169.911 52.7529C171.283 54.3818 171.968 56.7139 171.968 59.749V61.1025H159.083C159.13 62.9775 159.675 64.4951 160.718 65.6553C161.773 66.8037 163.109 67.3779 164.726 67.3779C165.874 67.3779 166.847 67.1436 167.644 66.6748C168.441 66.2061 169.138 65.585 169.736 64.8115L171.722 66.3584C170.128 68.8076 167.738 70.0322 164.55 70.0322ZM164.146 52.9814C162.833 52.9814 161.732 53.4619 160.841 54.4229C159.95 55.3721 159.4 56.708 159.189 58.4307H168.716V58.1846C168.622 56.5322 168.177 55.2549 167.38 54.3525C166.583 53.4385 165.505 52.9814 164.146 52.9814ZM9.30009 102.013C9.30009 99.0479 9.98564 96.6924 11.3567 94.9463C12.7278 93.1885 14.5442 92.3096 16.806 92.3096C19.1263 92.3096 20.9368 93.1299 22.2376 94.7705L22.3958 92.6611H25.3665V111.224C25.3665 113.685 24.6341 115.624 23.1692 117.042C21.7161 118.46 19.7591 119.169 17.2981 119.169C15.927 119.169 14.5853 118.876 13.2728 118.29C11.9603 117.704 10.9583 116.901 10.2669 115.882L11.9544 113.931C13.3489 115.653 15.054 116.515 17.0696 116.515C18.6517 116.515 19.8821 116.069 20.761 115.179C21.6517 114.288 22.097 113.034 22.097 111.417V109.782C20.7962 111.282 19.0208 112.032 16.7708 112.032C14.5442 112.032 12.7395 111.136 11.3567 109.343C9.98564 107.55 9.30009 105.106 9.30009 102.013ZM12.5696 102.382C12.5696 104.526 13.0091 106.214 13.888 107.444C14.7669 108.663 15.9974 109.272 17.5794 109.272C19.6302 109.272 21.136 108.341 22.097 106.478V97.7939C21.1009 95.9775 19.6067 95.0693 17.6145 95.0693C16.0325 95.0693 14.7962 95.6846 13.9056 96.915C13.0149 98.1455 12.5696 99.9678 12.5696 102.382ZM29.427 101.995C29.427 100.132 29.7903 98.4561 30.5169 96.9678C31.2552 95.4795 32.2747 94.3311 33.5755 93.5225C34.888 92.7139 36.3821 92.3096 38.0579 92.3096C40.6478 92.3096 42.7395 93.2061 44.3333 94.999C45.9388 96.792 46.7415 99.1768 46.7415 102.153V102.382C46.7415 104.233 46.3841 105.897 45.6692 107.374C44.9661 108.839 43.9524 109.981 42.6282 110.802C41.3157 111.622 39.804 112.032 38.0931 112.032C35.5149 112.032 33.4231 111.136 31.8177 109.343C30.2239 107.55 29.427 105.177 29.427 102.224V101.995ZM32.6966 102.382C32.6966 104.491 33.1829 106.185 34.1556 107.462C35.1399 108.739 36.4524 109.378 38.0931 109.378C39.7454 109.378 41.0579 108.733 42.0306 107.444C43.0032 106.144 43.4895 104.327 43.4895 101.995C43.4895 99.9092 42.9915 98.2217 41.9954 96.9326C41.011 95.6318 39.6985 94.9814 38.0579 94.9814C36.4524 94.9814 35.1575 95.6201 34.1731 96.8975C33.1888 98.1748 32.6966 100.003 32.6966 102.382ZM62.5618 111.681C62.3743 111.306 62.222 110.638 62.1048 109.677C60.5931 111.247 58.7884 112.032 56.6907 112.032C54.8157 112.032 53.2747 111.505 52.0677 110.45C50.8724 109.384 50.2747 108.036 50.2747 106.407C50.2747 104.427 51.0247 102.892 52.5247 101.802C54.0364 100.7 56.1575 100.149 58.888 100.149H62.052V98.6553C62.052 97.5186 61.7122 96.6162 61.0325 95.9482C60.3528 95.2686 59.3509 94.9287 58.0267 94.9287C56.8665 94.9287 55.8938 95.2217 55.1087 95.8076C54.3235 96.3936 53.931 97.1025 53.931 97.9346H50.6614C50.6614 96.9854 50.9954 96.0713 51.6634 95.1924C52.3431 94.3018 53.2571 93.5986 54.4056 93.083C55.5657 92.5674 56.8372 92.3096 58.22 92.3096C60.4114 92.3096 62.1282 92.8604 63.3704 93.9619C64.6126 95.0518 65.2571 96.5576 65.304 98.4795V107.233C65.304 108.979 65.5267 110.368 65.972 111.399V111.681H62.5618ZM57.1653 109.202C58.1849 109.202 59.1517 108.938 60.0657 108.411C60.9798 107.884 61.6419 107.198 62.052 106.354V102.452H59.5032C55.5188 102.452 53.5267 103.618 53.5267 105.95C53.5267 106.97 53.8665 107.767 54.5462 108.341C55.2259 108.915 56.0989 109.202 57.1653 109.202ZM73.9349 111.681H70.6829V84.6807H73.9349V111.681ZM90.2298 106.636C90.2298 105.757 89.8958 105.077 89.2278 104.597C88.5716 104.104 87.4173 103.683 85.7649 103.331C84.1243 102.979 82.8177 102.558 81.845 102.065C80.8841 101.573 80.1692 100.987 79.7005 100.308C79.2435 99.6279 79.0149 98.8193 79.0149 97.8818C79.0149 96.3232 79.6712 95.0049 80.9837 93.9268C82.3079 92.8486 83.9954 92.3096 86.0462 92.3096C88.2024 92.3096 89.9485 92.8662 91.2845 93.9795C92.6321 95.0928 93.306 96.5166 93.306 98.251H90.0364C90.0364 97.3604 89.6556 96.5928 88.8938 95.9482C88.1438 95.3037 87.1946 94.9814 86.0462 94.9814C84.8626 94.9814 83.9368 95.2393 83.2688 95.7549C82.6009 96.2705 82.2669 96.9443 82.2669 97.7764C82.2669 98.5615 82.5774 99.1533 83.1985 99.5518C83.8196 99.9502 84.9388 100.331 86.556 100.694C88.1849 101.058 89.5032 101.491 90.511 101.995C91.5188 102.499 92.263 103.108 92.7435 103.823C93.2356 104.526 93.4817 105.388 93.4817 106.407C93.4817 108.106 92.802 109.472 91.4427 110.503C90.0833 111.522 88.3196 112.032 86.1517 112.032C84.6282 112.032 83.2806 111.763 82.1087 111.224C80.9368 110.685 80.0169 109.935 79.3489 108.974C78.6927 108.001 78.3645 106.952 78.3645 105.827H81.6165C81.6751 106.917 82.1087 107.784 82.9173 108.429C83.7376 109.062 84.8157 109.378 86.1517 109.378C87.3821 109.378 88.3665 109.132 89.1048 108.64C89.8548 108.136 90.2298 107.468 90.2298 106.636ZM118.39 111.681C118.202 111.306 118.05 110.638 117.933 109.677C116.421 111.247 114.617 112.032 112.519 112.032C110.644 112.032 109.103 111.505 107.896 110.45C106.7 109.384 106.103 108.036 106.103 106.407C106.103 104.427 106.853 102.892 108.353 101.802C109.865 100.7 111.986 100.149 114.716 100.149H117.88V98.6553C117.88 97.5186 117.54 96.6162 116.861 95.9482C116.181 95.2686 115.179 94.9287 113.855 94.9287C112.695 94.9287 111.722 95.2217 110.937 95.8076C110.152 96.3936 109.759 97.1025 109.759 97.9346H106.49C106.49 96.9854 106.824 96.0713 107.492 95.1924C108.171 94.3018 109.085 93.5986 110.234 93.083C111.394 92.5674 112.665 92.3096 114.048 92.3096C116.24 92.3096 117.956 92.8604 119.199 93.9619C120.441 95.0518 121.085 96.5576 121.132 98.4795V107.233C121.132 108.979 121.355 110.368 121.8 111.399V111.681H118.39ZM112.993 109.202C114.013 109.202 114.98 108.938 115.894 108.411C116.808 107.884 117.47 107.198 117.88 106.354V102.452H115.331C111.347 102.452 109.355 103.618 109.355 105.95C109.355 106.97 109.695 107.767 110.374 108.341C111.054 108.915 111.927 109.202 112.993 109.202ZM129.306 92.6611L129.411 95.0518C130.865 93.2236 132.763 92.3096 135.107 92.3096C139.126 92.3096 141.154 94.5771 141.189 99.1123V111.681H137.937V99.0947C137.925 97.7236 137.609 96.71 136.988 96.0537C136.378 95.3975 135.423 95.0693 134.122 95.0693C133.068 95.0693 132.142 95.3506 131.345 95.9131C130.548 96.4756 129.927 97.2139 129.482 98.1279V111.681H126.23V92.6611H129.306ZM145.302 102.013C145.302 99.0947 145.993 96.751 147.376 94.9814C148.759 93.2002 150.57 92.3096 152.808 92.3096C155.034 92.3096 156.798 93.0713 158.099 94.5947V84.6807H161.351V111.681H158.363L158.204 109.642C156.904 111.235 155.093 112.032 152.773 112.032C150.57 112.032 148.771 111.13 147.376 109.325C145.993 107.521 145.302 105.165 145.302 102.259V102.013ZM148.554 102.382C148.554 104.538 148.999 106.226 149.89 107.444C150.781 108.663 152.011 109.272 153.581 109.272C155.644 109.272 157.15 108.347 158.099 106.495V97.7588C157.126 95.9658 155.632 95.0693 153.617 95.0693C152.023 95.0693 150.781 95.6846 149.89 96.915C148.999 98.1455 148.554 99.9678 148.554 102.382ZM29.638 153.681C29.4505 153.306 29.2981 152.638 29.181 151.677C27.6692 153.247 25.8645 154.032 23.7669 154.032C21.8919 154.032 20.3509 153.505 19.1438 152.45C17.9485 151.384 17.3509 150.036 17.3509 148.407C17.3509 146.427 18.1009 144.892 19.6009 143.802C21.1126 142.7 23.2337 142.149 25.9642 142.149H29.1282V140.655C29.1282 139.519 28.7884 138.616 28.1087 137.948C27.429 137.269 26.427 136.929 25.1028 136.929C23.9427 136.929 22.97 137.222 22.1849 137.808C21.3997 138.394 21.0071 139.103 21.0071 139.935H17.7376C17.7376 138.985 18.0716 138.071 18.7395 137.192C19.4192 136.302 20.3333 135.599 21.4817 135.083C22.6419 134.567 23.9134 134.31 25.2962 134.31C27.4876 134.31 29.2044 134.86 30.4466 135.962C31.6888 137.052 32.3333 138.558 32.3802 140.479V149.233C32.3802 150.979 32.6028 152.368 33.0481 153.399V153.681H29.638ZM24.2415 151.202C25.261 151.202 26.2278 150.938 27.1419 150.411C28.056 149.884 28.7181 149.198 29.1282 148.354V144.452H26.5794C22.595 144.452 20.6028 145.618 20.6028 147.95C20.6028 148.97 20.9427 149.767 21.6224 150.341C22.302 150.915 23.1751 151.202 24.2415 151.202ZM45.1067 151.378C46.2669 151.378 47.2806 151.026 48.1478 150.323C49.0149 149.62 49.4954 148.741 49.5892 147.687H52.6653C52.6067 148.776 52.2317 149.813 51.5403 150.798C50.8489 151.782 49.9231 152.567 48.763 153.153C47.6145 153.739 46.3958 154.032 45.1067 154.032C42.5169 154.032 40.4544 153.171 38.9192 151.448C37.3958 149.714 36.6341 147.347 36.6341 144.347V143.802C36.6341 141.95 36.9739 140.304 37.6536 138.862C38.3333 137.421 39.306 136.302 40.5716 135.505C41.8489 134.708 43.3548 134.31 45.0892 134.31C47.222 134.31 48.9915 134.948 50.3978 136.226C51.8157 137.503 52.5716 139.161 52.6653 141.2H49.5892C49.4954 139.97 49.0267 138.962 48.1829 138.177C47.3509 137.38 46.3196 136.981 45.0892 136.981C43.4368 136.981 42.1536 137.579 41.2395 138.774C40.3372 139.958 39.886 141.675 39.886 143.925V144.54C39.886 146.731 40.3372 148.419 41.2395 149.603C42.1419 150.786 43.431 151.378 45.1067 151.378ZM59.5735 136.964C61.0149 135.194 62.8899 134.31 65.1985 134.31C69.2181 134.31 71.2454 136.577 71.2806 141.112V153.681H68.0286V141.095C68.0169 139.724 67.7005 138.71 67.0794 138.054C66.47 137.397 65.5149 137.069 64.2142 137.069C63.1595 137.069 62.2337 137.351 61.4368 137.913C60.6399 138.476 60.0188 139.214 59.5735 140.128V153.681H56.3216V126.681H59.5735V136.964ZM79.6829 153.681H76.431V134.661H79.6829V153.681ZM76.1673 129.616C76.1673 129.089 76.3255 128.644 76.6419 128.28C76.97 127.917 77.4505 127.735 78.0833 127.735C78.7161 127.735 79.1966 127.917 79.5247 128.28C79.8528 128.644 80.0169 129.089 80.0169 129.616C80.0169 130.144 79.8528 130.583 79.5247 130.935C79.1966 131.286 78.7161 131.462 78.0833 131.462C77.4505 131.462 76.97 131.286 76.6419 130.935C76.3255 130.583 76.1673 130.144 76.1673 129.616ZM92.7962 154.032C90.2181 154.032 88.1204 153.188 86.5032 151.501C84.886 149.802 84.0774 147.534 84.0774 144.698V144.101C84.0774 142.214 84.4349 140.532 85.1497 139.056C85.8763 137.567 86.8841 136.407 88.1731 135.575C89.4739 134.731 90.8802 134.31 92.3919 134.31C94.8645 134.31 96.7864 135.124 98.1575 136.753C99.5286 138.382 100.214 140.714 100.214 143.749V145.103H87.3294C87.3763 146.978 87.9212 148.495 88.9642 149.655C90.0188 150.804 91.3548 151.378 92.972 151.378C94.1204 151.378 95.0931 151.144 95.8899 150.675C96.6868 150.206 97.3841 149.585 97.9817 148.812L99.9681 150.358C98.3743 152.808 95.9837 154.032 92.7962 154.032ZM92.3919 136.981C91.0794 136.981 89.9778 137.462 89.0872 138.423C88.1966 139.372 87.6458 140.708 87.4349 142.431H96.9622V142.185C96.8685 140.532 96.4231 139.255 95.6263 138.353C94.8294 137.438 93.7513 136.981 92.3919 136.981ZM110.023 149.269L114.734 134.661H118.056L111.236 153.681H108.757L101.867 134.661H105.189L110.023 149.269ZM128.831 154.032C126.253 154.032 124.156 153.188 122.538 151.501C120.921 149.802 120.113 147.534 120.113 144.698V144.101C120.113 142.214 120.47 140.532 121.185 139.056C121.911 137.567 122.919 136.407 124.208 135.575C125.509 134.731 126.915 134.31 128.427 134.31C130.9 134.31 132.822 135.124 134.193 136.753C135.564 138.382 136.249 140.714 136.249 143.749V145.103H123.365C123.411 146.978 123.956 148.495 124.999 149.655C126.054 150.804 127.39 151.378 129.007 151.378C130.156 151.378 131.128 151.144 131.925 150.675C132.722 150.206 133.419 149.585 134.017 148.812L136.003 150.358C134.409 152.808 132.019 154.032 128.831 154.032ZM128.427 136.981C127.115 136.981 126.013 137.462 125.122 138.423C124.232 139.372 123.681 140.708 123.47 142.431H132.997V142.185C132.904 140.532 132.458 139.255 131.661 138.353C130.865 137.438 129.786 136.981 128.427 136.981ZM151.103 148.636C151.103 147.757 150.769 147.077 150.101 146.597C149.445 146.104 148.29 145.683 146.638 145.331C144.997 144.979 143.691 144.558 142.718 144.065C141.757 143.573 141.042 142.987 140.574 142.308C140.117 141.628 139.888 140.819 139.888 139.882C139.888 138.323 140.544 137.005 141.857 135.927C143.181 134.849 144.868 134.31 146.919 134.31C149.075 134.31 150.822 134.866 152.158 135.979C153.505 137.093 154.179 138.517 154.179 140.251H150.909C150.909 139.36 150.529 138.593 149.767 137.948C149.017 137.304 148.068 136.981 146.919 136.981C145.736 136.981 144.81 137.239 144.142 137.755C143.474 138.271 143.14 138.944 143.14 139.776C143.14 140.562 143.45 141.153 144.072 141.552C144.693 141.95 145.812 142.331 147.429 142.694C149.058 143.058 150.376 143.491 151.384 143.995C152.392 144.499 153.136 145.108 153.617 145.823C154.109 146.526 154.355 147.388 154.355 148.407C154.355 150.106 153.675 151.472 152.316 152.503C150.956 153.522 149.193 154.032 147.025 154.032C145.501 154.032 144.154 153.763 142.982 153.224C141.81 152.685 140.89 151.935 140.222 150.974C139.566 150.001 139.238 148.952 139.238 147.827H142.49C142.548 148.917 142.982 149.784 143.79 150.429C144.611 151.062 145.689 151.378 147.025 151.378C148.255 151.378 149.24 151.132 149.978 150.64C150.728 150.136 151.103 149.468 151.103 148.636ZM46.7767 172.056V176.661H50.3274V179.175H46.7767V190.97C46.7767 191.731 46.9349 192.306 47.2513 192.692C47.5677 193.067 48.1067 193.255 48.8685 193.255C49.2435 193.255 49.7591 193.185 50.4153 193.044V195.681C49.5599 195.915 48.7278 196.032 47.9192 196.032C46.4661 196.032 45.3704 195.593 44.6321 194.714C43.8938 193.835 43.5247 192.587 43.5247 190.97V179.175H40.0618V176.661H43.5247V172.056H46.7767ZM57.3938 178.964C58.8353 177.194 60.7103 176.31 63.0188 176.31C67.0384 176.31 69.0657 178.577 69.1009 183.112V195.681H65.8489V183.095C65.8372 181.724 65.5208 180.71 64.8997 180.054C64.2903 179.397 63.3353 179.069 62.0345 179.069C60.9798 179.069 60.054 179.351 59.2571 179.913C58.4603 180.476 57.8392 181.214 57.3938 182.128V195.681H54.1419V168.681H57.3938V178.964ZM81.8626 196.032C79.2845 196.032 77.1868 195.188 75.5696 193.501C73.9524 191.802 73.1438 189.534 73.1438 186.698V186.101C73.1438 184.214 73.5013 182.532 74.2161 181.056C74.9427 179.567 75.9505 178.407 77.2395 177.575C78.5403 176.731 79.9466 176.31 81.4583 176.31C83.931 176.31 85.8528 177.124 87.2239 178.753C88.595 180.382 89.2806 182.714 89.2806 185.749V187.103H76.3958C76.4427 188.978 76.9876 190.495 78.0306 191.655C79.0853 192.804 80.4212 193.378 82.0384 193.378C83.1868 193.378 84.1595 193.144 84.9563 192.675C85.7532 192.206 86.4505 191.585 87.0481 190.812L89.0345 192.358C87.4407 194.808 85.0501 196.032 81.8626 196.032ZM81.4583 178.981C80.1458 178.981 79.0442 179.462 78.1536 180.423C77.263 181.372 76.7122 182.708 76.5013 184.431H86.0286V184.185C85.9349 182.532 85.4895 181.255 84.6927 180.353C83.8958 179.438 82.8177 178.981 81.4583 178.981ZM96.1185 176.661L96.2063 178.771C97.6009 177.13 99.4817 176.31 101.849 176.31C104.509 176.31 106.32 177.329 107.281 179.368C107.913 178.454 108.734 177.716 109.742 177.153C110.761 176.591 111.962 176.31 113.345 176.31C117.517 176.31 119.638 178.519 119.708 182.937V195.681H116.456V183.13C116.456 181.771 116.146 180.757 115.525 180.089C114.904 179.409 113.861 179.069 112.396 179.069C111.189 179.069 110.187 179.433 109.39 180.159C108.593 180.874 108.13 181.841 108.001 183.06V195.681H104.732V183.218C104.732 180.452 103.378 179.069 100.671 179.069C98.5384 179.069 97.0794 179.978 96.2942 181.794V195.681H93.0423V176.661H96.1185ZM124.7 193.976C124.7 193.413 124.865 192.944 125.193 192.569C125.533 192.194 126.036 192.007 126.704 192.007C127.372 192.007 127.876 192.194 128.216 192.569C128.568 192.944 128.743 193.413 128.743 193.976C128.743 194.515 128.568 194.966 128.216 195.329C127.876 195.692 127.372 195.874 126.704 195.874C126.036 195.874 125.533 195.692 125.193 195.329C124.865 194.966 124.7 194.515 124.7 193.976Z" fill="#6B6565"/>
</svg>
