<svg width="154" height="154" viewBox="0 0 154 154" fill="none" xmlns="http://www.w3.org/2000/svg">
<path d="M38.1816 15.951C35.2871 15.119 33.1777 14.0995 31.8535 12.8925C30.541 11.6737 29.8848 10.1737 29.8848 8.39246C29.8848 6.37683 30.6875 4.71277 32.293 3.40027C33.9101 2.07605 36.0078 1.41394 38.5859 1.41394C40.3437 1.41394 41.9082 1.75378 43.2793 2.43347C44.6621 3.11316 45.7285 4.05066 46.4785 5.24597C47.2402 6.44128 47.6211 7.74792 47.6211 9.16589H44.2285C44.2285 7.61902 43.7363 6.40613 42.7519 5.52722C41.7676 4.6366 40.3789 4.19128 38.5859 4.19128C36.9219 4.19128 35.6211 4.56042 34.6836 5.29871C33.7578 6.02527 33.2949 7.03894 33.2949 8.33972C33.2949 9.38269 33.7344 10.2675 34.6133 10.994C35.5039 11.7089 37.0098 12.3651 39.1308 12.9628C41.2637 13.5604 42.9277 14.2225 44.123 14.9491C45.3301 15.6639 46.2207 16.5018 46.7949 17.4628C47.3808 18.4237 47.6738 19.5546 47.6738 20.8553C47.6738 22.9296 46.8652 24.5936 45.248 25.8475C43.6308 27.0897 41.4687 27.7108 38.7617 27.7108C37.0039 27.7108 35.3633 27.3768 33.8398 26.7089C32.3164 26.0292 31.1387 25.1034 30.3066 23.9315C29.4863 22.7596 29.0762 21.4296 29.0762 19.9413H32.4687C32.4687 21.4882 33.0371 22.7128 34.1738 23.6151C35.3223 24.5057 36.8515 24.951 38.7617 24.951C40.543 24.951 41.9082 24.5878 42.8574 23.8612C43.8066 23.1346 44.2812 22.1444 44.2812 20.8905C44.2812 19.6366 43.8418 18.6698 42.9629 17.9901C42.084 17.2987 40.4902 16.619 38.1816 15.951ZM54.7578 10.6425C56.1992 8.87292 58.0742 7.98816 60.3828 7.98816C64.4023 7.98816 66.4297 10.2557 66.4648 14.7909V27.3593H63.2129V14.7733C63.2012 13.4022 62.8848 12.3885 62.2637 11.7323C61.6543 11.076 60.6992 10.7479 59.3984 10.7479C58.3437 10.7479 57.418 11.0292 56.6211 11.5917C55.8242 12.1542 55.2031 12.8925 54.7578 13.8065V27.3593H51.5058V0.359253H54.7578V10.6425ZM79.2265 27.7108C76.6484 27.7108 74.5508 26.8671 72.9336 25.1796C71.3164 23.4803 70.5078 21.2128 70.5078 18.3768V17.7792C70.5078 15.8925 70.8652 14.2108 71.5801 12.7343C72.3066 11.246 73.3144 10.0858 74.6035 9.25378C75.9043 8.41003 77.3105 7.98816 78.8223 7.98816C81.2949 7.98816 83.2168 8.80261 84.5879 10.4315C85.959 12.0604 86.6445 14.3925 86.6445 17.4276V18.7811H73.7598C73.8066 20.6561 74.3515 22.1737 75.3945 23.3339C76.4492 24.4823 77.7851 25.0565 79.4023 25.0565C80.5508 25.0565 81.5234 24.8221 82.3203 24.3534C83.1172 23.8846 83.8144 23.2635 84.4121 22.4901L86.3984 24.037C84.8047 26.4862 82.414 27.7108 79.2265 27.7108ZM78.8223 10.66C77.5098 10.66 76.4082 11.1405 75.5176 12.1014C74.6269 13.0507 74.0762 14.3866 73.8652 16.1093H83.3926V15.8632C83.2988 14.2108 82.8535 12.9335 82.0566 12.0311C81.2598 11.1171 80.1816 10.66 78.8223 10.66ZM102.887 27.3593H99.6348V8.33972H102.887V27.3593ZM99.3711 3.2948C99.3711 2.76746 99.5293 2.32214 99.8457 1.95886C100.174 1.59558 100.654 1.41394 101.287 1.41394C101.92 1.41394 102.4 1.59558 102.729 1.95886C103.057 2.32214 103.221 2.76746 103.221 3.2948C103.221 3.82214 103.057 4.2616 102.729 4.61316C102.4 4.96472 101.92 5.1405 101.287 5.1405C100.654 5.1405 100.174 4.96472 99.8457 4.61316C99.5293 4.2616 99.3711 3.82214 99.3711 3.2948ZM119.182 22.3143C119.182 21.4354 118.848 20.7557 118.18 20.2753C117.523 19.7831 116.369 19.3612 114.717 19.0096C113.076 18.6581 111.77 18.2362 110.797 17.744C109.836 17.2518 109.121 16.6659 108.652 15.9862C108.195 15.3065 107.967 14.4979 107.967 13.5604C107.967 12.0018 108.623 10.6835 109.936 9.60535C111.26 8.52722 112.947 7.98816 114.998 7.98816C117.154 7.98816 118.9 8.5448 120.236 9.65808C121.584 10.7714 122.258 12.1952 122.258 13.9296H118.988C118.988 13.0389 118.607 12.2714 117.846 11.6268C117.096 10.9823 116.146 10.66 114.998 10.66C113.814 10.66 112.889 10.9178 112.221 11.4335C111.553 11.9491 111.219 12.6229 111.219 13.455C111.219 14.2401 111.529 14.8319 112.15 15.2303C112.771 15.6288 113.891 16.0096 115.508 16.3729C117.137 16.7362 118.455 17.1698 119.463 17.6737C120.471 18.1776 121.215 18.787 121.695 19.5018C122.187 20.205 122.434 21.0663 122.434 22.0858C122.434 23.785 121.754 25.1503 120.395 26.1815C119.035 27.201 117.271 27.7108 115.104 27.7108C113.58 27.7108 112.232 27.4413 111.061 26.9022C109.889 26.3632 108.969 25.6132 108.301 24.6522C107.645 23.6796 107.316 22.6307 107.316 21.5057H110.568C110.627 22.5956 111.061 23.4628 111.869 24.1073C112.689 24.7401 113.768 25.0565 115.104 25.0565C116.334 25.0565 117.318 24.8104 118.057 24.3182C118.807 23.8143 119.182 23.1464 119.182 22.3143ZM32.0293 60.0604C32.0293 62.955 31.3672 65.287 30.043 67.0565C28.7187 68.826 26.9258 69.7108 24.664 69.7108C22.3555 69.7108 20.539 68.9784 19.2148 67.5135V76.6718H15.9629V50.3397H18.9336L19.0918 52.4491C20.416 50.8085 22.2558 49.9882 24.6113 49.9882C26.8965 49.9882 28.7012 50.8495 30.0254 52.5721C31.3613 54.2948 32.0293 56.6913 32.0293 59.7616V60.0604ZM28.7773 59.6913C28.7773 57.5468 28.3203 55.8534 27.4062 54.6112C26.4922 53.369 25.2383 52.7479 23.6445 52.7479C21.6758 52.7479 20.1992 53.621 19.2148 55.3671V64.455C20.1875 66.1893 21.6758 67.0565 23.6797 67.0565C25.2383 67.0565 26.4746 66.4413 27.3887 65.2108C28.3144 63.9686 28.7773 62.1288 28.7773 59.6913ZM35.3164 59.6737C35.3164 57.8104 35.6797 56.1346 36.4062 54.6464C37.1445 53.1581 38.164 52.0096 39.4648 51.201C40.7773 50.3925 42.2715 49.9882 43.9473 49.9882C46.5371 49.9882 48.6289 50.8846 50.2226 52.6776C51.8281 54.4706 52.6308 56.8553 52.6308 59.8319V60.0604C52.6308 61.912 52.2734 63.576 51.5586 65.0526C50.8555 66.5175 49.8418 67.66 48.5176 68.4803C47.2051 69.3007 45.6933 69.7108 43.9824 69.7108C41.4043 69.7108 39.3125 68.8143 37.707 67.0214C36.1133 65.2284 35.3164 62.8553 35.3164 59.9022V59.6737ZM38.5859 60.0604C38.5859 62.1698 39.0723 63.8632 40.0449 65.1405C41.0293 66.4178 42.3418 67.0565 43.9824 67.0565C45.6348 67.0565 46.9473 66.412 47.9199 65.1229C48.8926 63.8221 49.3789 62.0057 49.3789 59.6737C49.3789 57.5878 48.8808 55.9003 47.8848 54.6112C46.9004 53.3104 45.5879 52.66 43.9473 52.66C42.3418 52.66 41.0469 53.2987 40.0625 54.576C39.0781 55.8534 38.5859 57.6815 38.5859 60.0604ZM67.7832 64.3143C67.7832 63.4354 67.4492 62.7557 66.7812 62.2753C66.125 61.7831 64.9707 61.3612 63.3183 61.0096C61.6777 60.6581 60.3711 60.2362 59.3984 59.744C58.4375 59.2518 57.7226 58.6659 57.2539 57.9862C56.7969 57.3065 56.5683 56.4979 56.5683 55.5604C56.5683 54.0018 57.2246 52.6835 58.5371 51.6053C59.8613 50.5272 61.5488 49.9882 63.5996 49.9882C65.7558 49.9882 67.5019 50.5448 68.8379 51.6581C70.1855 52.7714 70.8594 54.1952 70.8594 55.9296H67.5898C67.5898 55.0389 67.209 54.2714 66.4473 53.6268C65.6973 52.9823 64.748 52.66 63.5996 52.66C62.416 52.66 61.4902 52.9178 60.8223 53.4335C60.1543 53.9491 59.8203 54.6229 59.8203 55.455C59.8203 56.2401 60.1308 56.8319 60.7519 57.2303C61.373 57.6288 62.4922 58.0096 64.1094 58.3729C65.7383 58.7362 67.0566 59.1698 68.0644 59.6737C69.0723 60.1776 69.8164 60.787 70.2969 61.5018C70.789 62.205 71.0351 63.0663 71.0351 64.0858C71.0351 65.785 70.3555 67.1503 68.9961 68.1815C67.6367 69.201 65.873 69.7108 63.7051 69.7108C62.1816 69.7108 60.834 69.4413 59.6621 68.9022C58.4902 68.3632 57.5703 67.6132 56.9023 66.6522C56.2461 65.6796 55.918 64.6307 55.918 63.5057H59.1699C59.2285 64.5956 59.6621 65.4628 60.4707 66.1073C61.291 66.7401 62.3691 67.0565 63.7051 67.0565C64.9355 67.0565 65.9199 66.8104 66.6582 66.3182C67.4082 65.8143 67.7832 65.1464 67.7832 64.3143ZM78.8047 69.3593H75.5527V50.3397H78.8047V69.3593ZM75.289 45.2948C75.289 44.7675 75.4473 44.3221 75.7637 43.9589C76.0918 43.5956 76.5723 43.4139 77.2051 43.4139C77.8379 43.4139 78.3183 43.5956 78.6465 43.9589C78.9746 44.3221 79.1387 44.7675 79.1387 45.2948C79.1387 45.8221 78.9746 46.2616 78.6465 46.6132C78.3183 46.9647 77.8379 47.1405 77.2051 47.1405C76.5723 47.1405 76.0918 46.9647 75.7637 46.6132C75.4473 46.2616 75.289 45.8221 75.289 45.2948ZM88.4375 45.7343V50.3397H91.9883V52.8534H88.4375V64.6483C88.4375 65.41 88.5957 65.9843 88.9121 66.371C89.2285 66.746 89.7676 66.9335 90.5293 66.9335C90.9043 66.9335 91.4199 66.8632 92.0762 66.7225V69.3593C91.2207 69.5936 90.3887 69.7108 89.5801 69.7108C88.1269 69.7108 87.0312 69.2714 86.293 68.3925C85.5547 67.5135 85.1855 66.2655 85.1855 64.6483V52.8534H81.7226V50.3397H85.1855V45.7343H88.4375ZM99.3359 69.3593H96.084V50.3397H99.3359V69.3593ZM95.8203 45.2948C95.8203 44.7675 95.9785 44.3221 96.2949 43.9589C96.623 43.5956 97.1035 43.4139 97.7363 43.4139C98.3691 43.4139 98.8496 43.5956 99.1777 43.9589C99.5058 44.3221 99.6699 44.7675 99.6699 45.2948C99.6699 45.8221 99.5058 46.2616 99.1777 46.6132C98.8496 46.9647 98.3691 47.1405 97.7363 47.1405C97.1035 47.1405 96.623 46.9647 96.2949 46.6132C95.9785 46.2616 95.8203 45.8221 95.8203 45.2948ZM110.832 64.9471L115.543 50.3397H118.865L112.045 69.3593H109.566L102.676 50.3397H105.998L110.832 64.9471ZM129.641 69.7108C127.062 69.7108 124.965 68.8671 123.348 67.1796C121.73 65.4803 120.922 63.2128 120.922 60.3768V59.7792C120.922 57.8925 121.279 56.2108 121.994 54.7343C122.721 53.246 123.729 52.0858 125.018 51.2538C126.318 50.41 127.725 49.9882 129.236 49.9882C131.709 49.9882 133.631 50.8026 135.002 52.4315C136.373 54.0604 137.059 56.3925 137.059 59.4276V60.7811H124.174C124.221 62.6561 124.766 64.1737 125.809 65.3339C126.863 66.4823 128.199 67.0565 129.816 67.0565C130.965 67.0565 131.937 66.8221 132.734 66.3534C133.531 65.8846 134.229 65.2635 134.826 64.4901L136.812 66.037C135.219 68.4862 132.828 69.7108 129.641 69.7108ZM129.236 52.66C127.924 52.66 126.822 53.1405 125.932 54.1014C125.041 55.0507 124.49 56.3866 124.279 58.1093H133.807V57.8632C133.713 56.2108 133.268 54.9335 132.471 54.0311C131.674 53.1171 130.596 52.66 129.236 52.66ZM3.81639 92.3397L3.92186 94.7303C5.37498 92.9022 7.27342 91.9882 9.61717 91.9882C13.6367 91.9882 15.664 94.2557 15.6992 98.7909V111.359H12.4473V98.7733C12.4355 97.4022 12.1191 96.3885 11.498 95.7323C10.8887 95.076 9.93358 94.7479 8.6328 94.7479C7.57811 94.7479 6.65233 95.0292 5.85545 95.5917C5.05858 96.1542 4.43748 96.8925 3.99217 97.8065V111.359H0.740219V92.3397H3.81639ZM19.7422 101.674C19.7422 99.8104 20.1055 98.1346 20.832 96.6464C21.5703 95.1581 22.5898 94.0096 23.8906 93.201C25.2031 92.3925 26.6973 91.9882 28.373 91.9882C30.9629 91.9882 33.0547 92.8846 34.6484 94.6776C36.2539 96.4706 37.0566 98.8553 37.0566 101.832V102.06C37.0566 103.912 36.6992 105.576 35.9844 107.053C35.2812 108.517 34.2676 109.66 32.9433 110.48C31.6308 111.301 30.1191 111.711 28.4082 111.711C25.8301 111.711 23.7383 110.814 22.1328 109.021C20.539 107.228 19.7422 104.855 19.7422 101.902V101.674ZM23.0117 102.06C23.0117 104.17 23.498 105.863 24.4707 107.141C25.4551 108.418 26.7676 109.057 28.4082 109.057C30.0605 109.057 31.373 108.412 32.3457 107.123C33.3183 105.822 33.8047 104.006 33.8047 101.674C33.8047 99.5878 33.3066 97.9003 32.3105 96.6112C31.3262 95.3104 30.0137 94.66 28.373 94.66C26.7676 94.66 25.4726 95.2987 24.4883 96.576C23.5039 97.8534 23.0117 99.6815 23.0117 102.06ZM53.123 92.3397L53.2109 94.4491C54.6055 92.8085 56.4863 91.9882 58.8535 91.9882C61.5137 91.9882 63.3242 93.0077 64.2851 95.0468C64.918 94.1327 65.7383 93.3944 66.7461 92.8319C67.7656 92.2694 68.9668 91.9882 70.3496 91.9882C74.5215 91.9882 76.6426 94.1971 76.7129 98.6151V111.359H73.4609V98.8085C73.4609 97.4491 73.1504 96.4354 72.5293 95.7675C71.9082 95.0878 70.8652 94.7479 69.4004 94.7479C68.1933 94.7479 67.1914 95.1112 66.3945 95.8378C65.5976 96.5526 65.1348 97.5194 65.0058 98.7382V111.359H61.7363V98.8964C61.7363 96.1307 60.3828 94.7479 57.6758 94.7479C55.543 94.7479 54.084 95.6561 53.2988 97.4725V111.359H50.0469V92.3397H53.123ZM93.3769 111.359C93.1894 110.984 93.0371 110.316 92.9199 109.355C91.4082 110.926 89.6035 111.711 87.5058 111.711C85.6308 111.711 84.0898 111.183 82.8828 110.129C81.6875 109.062 81.0898 107.715 81.0898 106.086C81.0898 104.105 81.8398 102.57 83.3398 101.48C84.8515 100.379 86.9726 99.828 89.7031 99.828H92.8672V98.3339C92.8672 97.1971 92.5273 96.2948 91.8476 95.6268C91.168 94.9471 90.166 94.6073 88.8418 94.6073C87.6816 94.6073 86.709 94.9003 85.9238 95.4862C85.1387 96.0721 84.7461 96.7811 84.7461 97.6132H81.4765C81.4765 96.6639 81.8105 95.7499 82.4785 94.871C83.1582 93.9803 84.0723 93.2772 85.2207 92.7616C86.3808 92.246 87.6523 91.9882 89.0351 91.9882C91.2265 91.9882 92.9433 92.5389 94.1855 93.6405C95.4277 94.7303 96.0723 96.2362 96.1191 98.1581V106.912C96.1191 108.658 96.3418 110.047 96.7871 111.078V111.359H93.3769ZM87.9805 108.881C89 108.881 89.9668 108.617 90.8808 108.09C91.7949 107.562 92.457 106.877 92.8672 106.033V102.131H90.3183C86.334 102.131 84.3418 103.297 84.3418 105.629C84.3418 106.648 84.6816 107.445 85.3613 108.019C86.041 108.594 86.914 108.881 87.9805 108.881ZM105.629 87.7343V92.3397H109.18V94.8534H105.629V106.648C105.629 107.41 105.787 107.984 106.104 108.371C106.42 108.746 106.959 108.933 107.721 108.933C108.096 108.933 108.611 108.863 109.268 108.723V111.359C108.412 111.594 107.58 111.711 106.771 111.711C105.318 111.711 104.223 111.271 103.484 110.392C102.746 109.514 102.377 108.266 102.377 106.648V94.8534H98.914V92.3397H102.377V87.7343H105.629ZM117.406 87.7343V92.3397H120.957V94.8534H117.406V106.648C117.406 107.41 117.564 107.984 117.881 108.371C118.197 108.746 118.736 108.933 119.498 108.933C119.873 108.933 120.389 108.863 121.045 108.723V111.359C120.189 111.594 119.357 111.711 118.549 111.711C117.096 111.711 116 111.271 115.262 110.392C114.523 109.514 114.154 108.266 114.154 106.648V94.8534H110.691V92.3397H114.154V87.7343H117.406ZM132.664 111.711C130.086 111.711 127.988 110.867 126.371 109.18C124.754 107.48 123.945 105.213 123.945 102.377V101.779C123.945 99.8925 124.303 98.2108 125.018 96.7343C125.744 95.246 126.752 94.0858 128.041 93.2538C129.342 92.41 130.748 91.9882 132.26 91.9882C134.732 91.9882 136.654 92.8026 138.025 94.4315C139.396 96.0604 140.082 98.3925 140.082 101.428V102.781H127.197C127.244 104.656 127.789 106.174 128.832 107.334C129.887 108.482 131.223 109.057 132.84 109.057C133.988 109.057 134.961 108.822 135.758 108.353C136.555 107.885 137.252 107.264 137.85 106.49L139.836 108.037C138.242 110.486 135.852 111.711 132.664 111.711ZM132.26 94.66C130.947 94.66 129.846 95.1405 128.955 96.1014C128.064 97.0507 127.514 98.3866 127.303 100.109H136.83V99.8632C136.736 98.2108 136.291 96.9335 135.494 96.0311C134.697 95.1171 133.619 94.66 132.26 94.66ZM153.055 95.2577C152.562 95.1757 152.029 95.1346 151.455 95.1346C149.322 95.1346 147.875 96.0428 147.113 97.8593V111.359H143.861V92.3397H147.025L147.078 94.537C148.145 92.8378 149.656 91.9882 151.613 91.9882C152.246 91.9882 152.727 92.0702 153.055 92.2343V95.2577ZM51.3652 148.877L55.0215 134.34H58.2734L52.7363 153.359H50.0996L45.4765 138.945L40.9765 153.359H38.3398L32.8203 134.34H36.0547L39.7988 148.578L44.2285 134.34H46.8476L51.3652 148.877ZM64.8476 136.642C66.289 134.873 68.164 133.988 70.4726 133.988C74.4922 133.988 76.5195 136.256 76.5547 140.791V153.359H73.3027V140.773C73.291 139.402 72.9746 138.389 72.3535 137.732C71.7441 137.076 70.789 136.748 69.4883 136.748C68.4336 136.748 67.5078 137.029 66.7109 137.592C65.914 138.154 65.293 138.892 64.8476 139.807V153.359H61.5957V126.359H64.8476V136.642ZM93.166 153.359C92.9785 152.984 92.8262 152.316 92.709 151.355C91.1973 152.926 89.3926 153.711 87.2949 153.711C85.4199 153.711 83.8789 153.183 82.6719 152.129C81.4765 151.062 80.8789 149.715 80.8789 148.086C80.8789 146.105 81.6289 144.57 83.1289 143.48C84.6406 142.379 86.7617 141.828 89.4922 141.828H92.6562V140.334C92.6562 139.197 92.3164 138.295 91.6367 137.627C90.957 136.947 89.9551 136.607 88.6308 136.607C87.4707 136.607 86.498 136.9 85.7129 137.486C84.9277 138.072 84.5351 138.781 84.5351 139.613H81.2656C81.2656 138.664 81.5996 137.75 82.2676 136.871C82.9473 135.98 83.8613 135.277 85.0098 134.762C86.1699 134.246 87.4414 133.988 88.8242 133.988C91.0156 133.988 92.7324 134.539 93.9746 135.641C95.2168 136.73 95.8613 138.236 95.9082 140.158V148.912C95.9082 150.658 96.1308 152.047 96.5762 153.078V153.359H93.166ZM87.7695 150.881C88.789 150.881 89.7558 150.617 90.6699 150.09C91.584 149.562 92.2461 148.877 92.6562 148.033V144.131H90.1074C86.123 144.131 84.1308 145.297 84.1308 147.629C84.1308 148.648 84.4707 149.445 85.1504 150.019C85.8301 150.594 86.7031 150.881 87.7695 150.881ZM105.418 129.734V134.34H108.969V136.853H105.418V148.648C105.418 149.41 105.576 149.984 105.893 150.371C106.209 150.746 106.748 150.933 107.51 150.933C107.885 150.933 108.4 150.863 109.057 150.723V153.359C108.201 153.594 107.369 153.711 106.561 153.711C105.107 153.711 104.012 153.271 103.273 152.392C102.535 151.514 102.166 150.266 102.166 148.648V136.853H98.7031V134.34H102.166V129.734H105.418ZM112.854 151.654C112.854 151.092 113.018 150.623 113.346 150.248C113.686 149.873 114.189 149.685 114.857 149.685C115.525 149.685 116.029 149.873 116.369 150.248C116.721 150.623 116.896 151.092 116.896 151.654C116.896 152.193 116.721 152.644 116.369 153.008C116.029 153.371 115.525 153.553 114.857 153.553C114.189 153.553 113.686 153.371 113.346 153.008C113.018 152.644 112.854 152.193 112.854 151.654Z" fill="#6B6565"/>
</svg>
