<svg width="141" height="154" viewBox="0 0 141 154" fill="none" xmlns="http://www.w3.org/2000/svg">
<path d="M51.0146 16.2195C48.1201 15.3875 46.0107 14.3679 44.6865 13.1609C43.374 11.9421 42.7178 10.4421 42.7178 8.66089C42.7178 6.64526 43.5205 4.9812 45.126 3.6687C46.7431 2.34448 48.8408 1.68237 51.4189 1.68237C53.1767 1.68237 54.7412 2.02222 56.1123 2.7019C57.4951 3.38159 58.5615 4.31909 59.3115 5.5144C60.0732 6.70972 60.4541 8.01636 60.4541 9.43433H57.0615C57.0615 7.88745 56.5693 6.67456 55.5849 5.79565C54.6006 4.90503 53.2119 4.45972 51.4189 4.45972C49.7549 4.45972 48.4541 4.82886 47.5166 5.56714C46.5908 6.2937 46.1279 7.30737 46.1279 8.60815C46.1279 9.65112 46.5674 10.5359 47.4463 11.2625C48.3369 11.9773 49.8428 12.6335 51.9639 13.2312C54.0967 13.8289 55.7607 14.491 56.956 15.2175C58.1631 15.9324 59.0537 16.7703 59.6279 17.7312C60.2139 18.6921 60.5068 19.823 60.5068 21.1238C60.5068 23.198 59.6982 24.8621 58.081 26.116C56.4639 27.3582 54.3017 27.9792 51.5947 27.9792C49.8369 27.9792 48.1963 27.6453 46.6728 26.9773C45.1494 26.2976 43.9717 25.3718 43.1396 24.2C42.3193 23.0281 41.9092 21.698 41.9092 20.2097H45.3017C45.3017 21.7566 45.8701 22.9812 47.0068 23.8835C48.1553 24.7742 49.6846 25.2195 51.5947 25.2195C53.376 25.2195 54.7412 24.8562 55.6904 24.1296C56.6396 23.4031 57.1142 22.4128 57.1142 21.1589C57.1142 19.905 56.6748 18.9382 55.7959 18.2585C54.917 17.5671 53.3232 16.8875 51.0146 16.2195ZM67.5908 10.9109C69.0322 9.14136 70.9072 8.25659 73.2158 8.25659C77.2353 8.25659 79.2627 10.5242 79.2978 15.0593V27.6277H76.0459V15.0417C76.0342 13.6707 75.7178 12.657 75.0967 12.0007C74.4873 11.3445 73.5322 11.0164 72.2314 11.0164C71.1767 11.0164 70.251 11.2976 69.4541 11.8601C68.6572 12.4226 68.0361 13.1609 67.5908 14.075V27.6277H64.3389V0.627686H67.5908V10.9109ZM92.0596 27.9792C89.4814 27.9792 87.3838 27.1355 85.7666 25.448C84.1494 23.7488 83.3408 21.4812 83.3408 18.6453V18.0476C83.3408 16.1609 83.6982 14.4792 84.4131 13.0027C85.1396 11.5144 86.1474 10.3542 87.4365 9.52222C88.7373 8.67847 90.1435 8.25659 91.6553 8.25659C94.1279 8.25659 96.0498 9.07104 97.4209 10.7C98.792 12.3289 99.4775 14.6609 99.4775 17.696V19.0496H86.5928C86.6396 20.9246 87.1846 22.4421 88.2275 23.6023C89.2822 24.7507 90.6181 25.325 92.2353 25.325C93.3838 25.325 94.3564 25.0906 95.1533 24.6218C95.9502 24.1531 96.6474 23.532 97.2451 22.7585L99.2314 24.3054C97.6377 26.7546 95.2471 27.9792 92.0596 27.9792ZM91.6553 10.9285C90.3428 10.9285 89.2412 11.4089 88.3506 12.3699C87.4599 13.3191 86.9092 14.655 86.6982 16.3777H96.2256V16.1316C96.1318 14.4792 95.6865 13.2019 94.8896 12.2996C94.0928 11.3855 93.0146 10.9285 91.6553 10.9285ZM29.6924 69.6277C29.5049 69.2527 29.3525 68.5847 29.2353 67.6238C27.7236 69.1941 25.9189 69.9792 23.8213 69.9792C21.9463 69.9792 20.4053 69.4519 19.1982 68.3972C18.0029 67.3308 17.4053 65.9832 17.4053 64.3542C17.4053 62.3738 18.1553 60.8386 19.6553 59.7488C21.167 58.6472 23.2881 58.0964 26.0185 58.0964H29.1826V56.6023C29.1826 55.4656 28.8428 54.5632 28.1631 53.8953C27.4834 53.2156 26.4814 52.8757 25.1572 52.8757C23.9971 52.8757 23.0244 53.1687 22.2392 53.7546C21.4541 54.3406 21.0615 55.0496 21.0615 55.8816H17.792C17.792 54.9324 18.126 54.0183 18.7939 53.1394C19.4736 52.2488 20.3877 51.5457 21.5361 51.03C22.6963 50.5144 23.9678 50.2566 25.3506 50.2566C27.542 50.2566 29.2588 50.8074 30.501 51.9089C31.7431 52.9988 32.3877 54.5046 32.4346 56.4265V65.1804C32.4346 66.9265 32.6572 68.3152 33.1025 69.3464V69.6277H29.6924ZM24.2959 67.1492C25.3154 67.1492 26.2822 66.8855 27.1963 66.3582C28.1103 65.8308 28.7724 65.1453 29.1826 64.3015V60.3992H26.6338C22.6494 60.3992 20.6572 61.5652 20.6572 63.8972C20.6572 64.9167 20.9971 65.7136 21.6767 66.2878C22.3564 66.8621 23.2295 67.1492 24.2959 67.1492ZM41.0654 69.6277H37.8135V42.6277H41.0654V69.6277ZM63.126 65.1453L66.7822 50.6082H70.0342L64.4971 69.6277H61.8603L57.2373 55.2136L52.7373 69.6277H50.1006L44.581 50.6082H47.8154L51.5596 64.8464L55.9892 50.6082H58.6084L63.126 65.1453ZM85.0986 69.6277C84.9111 69.2527 84.7588 68.5847 84.6416 67.6238C83.1299 69.1941 81.3252 69.9792 79.2275 69.9792C77.3525 69.9792 75.8115 69.4519 74.6045 68.3972C73.4092 67.3308 72.8115 65.9832 72.8115 64.3542C72.8115 62.3738 73.5615 60.8386 75.0615 59.7488C76.5732 58.6472 78.6943 58.0964 81.4248 58.0964H84.5889V56.6023C84.5889 55.4656 84.249 54.5632 83.5693 53.8953C82.8896 53.2156 81.8877 52.8757 80.5635 52.8757C79.4033 52.8757 78.4306 53.1687 77.6455 53.7546C76.8603 54.3406 76.4678 55.0496 76.4678 55.8816H73.1982C73.1982 54.9324 73.5322 54.0183 74.2002 53.1394C74.8799 52.2488 75.7939 51.5457 76.9424 51.03C78.1025 50.5144 79.374 50.2566 80.7568 50.2566C82.9482 50.2566 84.665 50.8074 85.9072 51.9089C87.1494 52.9988 87.7939 54.5046 87.8408 56.4265V65.1804C87.8408 66.9265 88.0635 68.3152 88.5088 69.3464V69.6277H85.0986ZM79.7021 67.1492C80.7217 67.1492 81.6885 66.8855 82.6025 66.3582C83.5166 65.8308 84.1787 65.1453 84.5889 64.3015V60.3992H82.04C78.0556 60.3992 76.0635 61.5652 76.0635 63.8972C76.0635 64.9167 76.4033 65.7136 77.083 66.2878C77.7627 66.8621 78.6357 67.1492 79.7021 67.1492ZM98.8799 64.864L103.31 50.6082H106.79L99.1435 72.5632C97.9599 75.7273 96.0791 77.3093 93.501 77.3093L92.8857 77.2566L91.6728 77.0281V74.3914L92.5517 74.4617C93.6533 74.4617 94.5088 74.239 95.1181 73.7937C95.7392 73.3484 96.249 72.5339 96.6474 71.3503L97.3681 69.4167L90.583 50.6082H94.1338L98.8799 64.864ZM120.782 64.5828C120.782 63.7039 120.448 63.0242 119.78 62.5437C119.124 62.0515 117.97 61.6296 116.317 61.2781C114.677 60.9265 113.37 60.5046 112.397 60.0125C111.437 59.5203 110.722 58.9343 110.253 58.2546C109.796 57.575 109.567 56.7664 109.567 55.8289C109.567 54.2703 110.224 52.9519 111.536 51.8738C112.86 50.7957 114.548 50.2566 116.599 50.2566C118.755 50.2566 120.501 50.8132 121.837 51.9265C123.185 53.0398 123.858 54.4636 123.858 56.198H120.589C120.589 55.3074 120.208 54.5398 119.446 53.8953C118.696 53.2507 117.747 52.9285 116.599 52.9285C115.415 52.9285 114.489 53.1863 113.821 53.7019C113.153 54.2175 112.819 54.8914 112.819 55.7234C112.819 56.5085 113.13 57.1003 113.751 57.4988C114.372 57.8972 115.491 58.2781 117.108 58.6414C118.737 59.0046 120.056 59.4382 121.063 59.9421C122.071 60.446 122.815 61.0554 123.296 61.7703C123.788 62.4734 124.034 63.3347 124.034 64.3542C124.034 66.0535 123.354 67.4187 121.995 68.45C120.636 69.4695 118.872 69.9792 116.704 69.9792C115.181 69.9792 113.833 69.7097 112.661 69.1707C111.489 68.6316 110.569 67.8816 109.901 66.9207C109.245 65.948 108.917 64.8992 108.917 63.7742H112.169C112.228 64.864 112.661 65.7312 113.47 66.3757C114.29 67.0085 115.368 67.325 116.704 67.325C117.935 67.325 118.919 67.0789 119.657 66.5867C120.407 66.0828 120.782 65.4148 120.782 64.5828ZM12.7822 106.583C12.7822 105.704 12.4482 105.024 11.7803 104.544C11.124 104.052 9.96971 103.63 8.31737 103.278C6.67674 102.927 5.3701 102.505 4.39745 102.012C3.43651 101.52 2.72166 100.934 2.25291 100.255C1.79588 99.575 1.56737 98.7664 1.56737 97.8289C1.56737 96.2703 2.22362 94.9519 3.53612 93.8738C4.86034 92.7957 6.54784 92.2566 8.59862 92.2566C10.7549 92.2566 12.501 92.8132 13.8369 93.9265C15.1846 95.0398 15.8584 96.4636 15.8584 98.198H12.5889C12.5889 97.3074 12.208 96.5398 11.4463 95.8953C10.6963 95.2507 9.74706 94.9285 8.59862 94.9285C7.41502 94.9285 6.48924 95.1863 5.82127 95.7019C5.15331 96.2175 4.81932 96.8914 4.81932 97.7234C4.81932 98.5085 5.12987 99.1003 5.75096 99.4988C6.37206 99.8972 7.4912 100.278 9.10838 100.641C10.7373 101.005 12.0556 101.438 13.0635 101.942C14.0713 102.446 14.8154 103.055 15.2959 103.77C15.7881 104.473 16.0342 105.335 16.0342 106.354C16.0342 108.053 15.3545 109.419 13.9951 110.45C12.6357 111.469 10.8721 111.979 8.70409 111.979C7.18065 111.979 5.83299 111.71 4.66112 111.171C3.48924 110.632 2.56932 109.882 1.90135 108.921C1.2451 107.948 0.916977 106.899 0.916977 105.774H4.16893C4.22752 106.864 4.66112 107.731 5.46971 108.376C6.29002 109.009 7.36815 109.325 8.70409 109.325C9.93456 109.325 10.9189 109.079 11.6572 108.587C12.4072 108.083 12.7822 107.415 12.7822 106.583ZM32.0127 109.747C30.7471 111.235 28.8896 111.979 26.4404 111.979C24.4131 111.979 22.8662 111.393 21.7998 110.221C20.7451 109.038 20.2119 107.292 20.2002 104.983V92.6082H23.4521V104.895C23.4521 107.778 24.624 109.219 26.9678 109.219C29.4521 109.219 31.1045 108.294 31.9248 106.442V92.6082H35.1767V111.628H32.083L32.0127 109.747ZM56.2002 102.329C56.2002 105.223 55.5381 107.555 54.2139 109.325C52.8896 111.094 51.0967 111.979 48.8349 111.979C46.5264 111.979 44.7099 111.247 43.3857 109.782V118.94H40.1338V92.6082H43.1045L43.2627 94.7175C44.5869 93.0769 46.4267 92.2566 48.7822 92.2566C51.0674 92.2566 52.8721 93.1179 54.1963 94.8406C55.5322 96.5632 56.2002 98.9597 56.2002 102.03V102.329ZM52.9482 101.96C52.9482 99.8152 52.4912 98.1218 51.5771 96.8796C50.6631 95.6375 49.4092 95.0164 47.8154 95.0164C45.8467 95.0164 44.3701 95.8894 43.3857 97.6355V106.723C44.3584 108.458 45.8467 109.325 47.8506 109.325C49.4092 109.325 50.6455 108.71 51.5596 107.479C52.4853 106.237 52.9482 104.397 52.9482 101.96ZM76.415 102.329C76.415 105.223 75.7529 107.555 74.4287 109.325C73.1045 111.094 71.3115 111.979 69.0498 111.979C66.7412 111.979 64.9248 111.247 63.6006 109.782V118.94H60.3486V92.6082H63.3193L63.4775 94.7175C64.8017 93.0769 66.6416 92.2566 68.9971 92.2566C71.2822 92.2566 73.0869 93.1179 74.4111 94.8406C75.7471 96.5632 76.415 98.9597 76.415 102.03V102.329ZM73.1631 101.96C73.1631 99.8152 72.706 98.1218 71.792 96.8796C70.8779 95.6375 69.624 95.0164 68.0303 95.0164C66.0615 95.0164 64.5849 95.8894 63.6006 97.6355V106.723C64.5732 108.458 66.0615 109.325 68.0654 109.325C69.624 109.325 70.8603 108.71 71.7744 107.479C72.7002 106.237 73.1631 104.397 73.1631 101.96ZM79.7021 101.942C79.7021 100.079 80.0654 98.4031 80.792 96.9148C81.5303 95.4265 82.5498 94.2781 83.8506 93.4695C85.1631 92.6609 86.6572 92.2566 88.333 92.2566C90.9228 92.2566 93.0146 93.1531 94.6084 94.946C96.2139 96.739 97.0166 99.1238 97.0166 102.1V102.329C97.0166 104.18 96.6592 105.844 95.9443 107.321C95.2412 108.786 94.2275 109.928 92.9033 110.749C91.5908 111.569 90.0791 111.979 88.3681 111.979C85.79 111.979 83.6982 111.083 82.0928 109.29C80.499 107.497 79.7021 105.124 79.7021 102.171V101.942ZM82.9717 102.329C82.9717 104.438 83.458 106.132 84.4306 107.409C85.415 108.686 86.7275 109.325 88.3681 109.325C90.0205 109.325 91.333 108.68 92.3056 107.391C93.2783 106.091 93.7646 104.274 93.7646 101.942C93.7646 99.8562 93.2666 98.1687 92.2705 96.8796C91.2861 95.5789 89.9736 94.9285 88.333 94.9285C86.7275 94.9285 85.4326 95.5671 84.4482 96.8445C83.4639 98.1218 82.9717 99.95 82.9717 102.329ZM110.288 95.5261C109.796 95.4441 109.263 95.4031 108.688 95.4031C106.556 95.4031 105.108 96.3113 104.347 98.1277V111.628H101.095V92.6082H104.259L104.312 94.8054C105.378 93.1062 106.89 92.2566 108.847 92.2566C109.479 92.2566 109.96 92.3386 110.288 92.5027V95.5261ZM118.585 88.0027V92.6082H122.136V95.1218H118.585V106.917C118.585 107.678 118.743 108.253 119.06 108.639C119.376 109.014 119.915 109.202 120.677 109.202C121.052 109.202 121.567 109.132 122.224 108.991V111.628C121.368 111.862 120.536 111.979 119.728 111.979C118.274 111.979 117.179 111.54 116.44 110.661C115.702 109.782 115.333 108.534 115.333 106.917V95.1218H111.87V92.6082H115.333V88.0027H118.585ZM137.024 106.583C137.024 105.704 136.69 105.024 136.022 104.544C135.366 104.052 134.212 103.63 132.56 103.278C130.919 102.927 129.612 102.505 128.64 102.012C127.679 101.52 126.964 100.934 126.495 100.255C126.038 99.575 125.81 98.7664 125.81 97.8289C125.81 96.2703 126.466 94.9519 127.778 93.8738C129.103 92.7957 130.79 92.2566 132.841 92.2566C134.997 92.2566 136.743 92.8132 138.079 93.9265C139.427 95.0398 140.101 96.4636 140.101 98.198H136.831C136.831 97.3074 136.45 96.5398 135.688 95.8953C134.938 95.2507 133.989 94.9285 132.841 94.9285C131.657 94.9285 130.731 95.1863 130.063 95.7019C129.395 96.2175 129.062 96.8914 129.062 97.7234C129.062 98.5085 129.372 99.1003 129.993 99.4988C130.614 99.8972 131.733 100.278 133.351 100.641C134.979 101.005 136.298 101.438 137.306 101.942C138.313 102.446 139.058 103.055 139.538 103.77C140.03 104.473 140.276 105.335 140.276 106.354C140.276 108.053 139.597 109.419 138.237 110.45C136.878 111.469 135.114 111.979 132.946 111.979C131.423 111.979 130.075 111.71 128.903 111.171C127.731 110.632 126.812 109.882 126.144 108.921C125.487 107.948 125.159 106.899 125.159 105.774H128.411C128.47 106.864 128.903 107.731 129.712 108.376C130.532 109.009 131.61 109.325 132.946 109.325C134.177 109.325 135.161 109.079 135.899 108.587C136.649 108.083 137.024 107.415 137.024 106.583ZM46.0928 134.608L46.1806 136.718C47.5752 135.077 49.456 134.257 51.8232 134.257C54.4834 134.257 56.2939 135.276 57.2549 137.315C57.8877 136.401 58.708 135.663 59.7158 135.1C60.7353 134.538 61.9365 134.257 63.3193 134.257C67.4912 134.257 69.6123 136.466 69.6826 140.884V153.628H66.4306V141.077C66.4306 139.718 66.1201 138.704 65.499 138.036C64.8779 137.356 63.8349 137.016 62.3701 137.016C61.1631 137.016 60.1611 137.38 59.3642 138.106C58.5674 138.821 58.1045 139.788 57.9756 141.007V153.628H54.706V141.165C54.706 138.399 53.3525 137.016 50.6455 137.016C48.5127 137.016 47.0537 137.925 46.2685 139.741V153.628H43.0166V134.608H46.0928ZM82.4971 153.979C79.9189 153.979 77.8213 153.135 76.2041 151.448C74.5869 149.749 73.7783 147.481 73.7783 144.645V144.048C73.7783 142.161 74.1357 140.479 74.8506 139.003C75.5771 137.514 76.5849 136.354 77.874 135.522C79.1748 134.678 80.581 134.257 82.0928 134.257C84.5654 134.257 86.4873 135.071 87.8584 136.7C89.2295 138.329 89.915 140.661 89.915 143.696V145.05H77.0303C77.0771 146.925 77.6221 148.442 78.665 149.602C79.7197 150.751 81.0556 151.325 82.6728 151.325C83.8213 151.325 84.7939 151.091 85.5908 150.622C86.3877 150.153 87.0849 149.532 87.6826 148.759L89.6689 150.305C88.0752 152.755 85.6846 153.979 82.4971 153.979ZM82.0928 136.928C80.7803 136.928 79.6787 137.409 78.7881 138.37C77.8974 139.319 77.3467 140.655 77.1357 142.378H86.6631V142.132C86.5693 140.479 86.124 139.202 85.3271 138.3C84.5303 137.385 83.4521 136.928 82.0928 136.928ZM93.7646 151.923C93.7646 151.36 93.9287 150.891 94.2568 150.516C94.5967 150.141 95.1006 149.954 95.7685 149.954C96.4365 149.954 96.9404 150.141 97.2803 150.516C97.6318 150.891 97.8076 151.36 97.8076 151.923C97.8076 152.462 97.6318 152.913 97.2803 153.276C96.9404 153.639 96.4365 153.821 95.7685 153.821C95.1006 153.821 94.5967 153.639 94.2568 153.276C93.9287 152.913 93.7646 152.462 93.7646 151.923Z" fill="#6B6565"/>
</svg>
